<svg height="831" width="1627" viewBox="136 194 1627 831" style="background-color:transparent;" preserveAspectRatio="xMinYMin meet" xmlns:xlink="http://www.w3.org/1999/xlink" xmlns="http://www.w3.org/2000/svg"><defs><style type="text/css">.svg-txt-center tspan {text-anchor: middle;}.svg-txt-right tspan {text-anchor: end;}</style></defs><g transform="translate(0,0)"><g transform="matrix(1,0,0,1,156,204)"><path style="fill:none;stroke:#333333;stroke-width:3.0;;" d="m0,0.10990976210008203l165.17176493955458,-0.6611640689089419l1.4584502816263454,42.88065627563577l-165.82153090742955,-0.1320639868744873z"/><path style="fill:#333333;stroke:none;stroke-width:3.0;;stroke: none;" d="m63.248274,-6.1981l38.0093,-2.40741l-0.603966,2.40741l3.76254,0.531494l-2.13063,2.4458l-1.31318,1.85211l3.61304,0l-2.87453,2.84827l2.21614,2.70691l-40.9795,2.25l0.300789,-2.40662l-2.71546,-0.902466l3.31823,-1.50378l-3.85104,-3.49121l3.36488,-1.28223l-2.0523,-1.42377l1.93569,-1.62451z"/></g><text style="font-weight:Normal; font-size: 12px; text-anchor: start; font-family: arial,helvetica,sans-serif; fill: #333333;" class="" y="229" x="171"><tspan x="171">Ecm</tspan><tspan>_core</tspan><tspan>_lib</tspan></text></g><g transform="translate(0,0)"><path style="fill:none;stroke:#333333;stroke-width:3.0;;stroke-linejoin: round;" d="m176,284l702,0l2,656l-704,0"/><path style="fill:none;stroke:#333333;stroke-width:3.0;;stroke-linejoin: round;" d="m151,284l27,0l2,656l-27,0z"/><text transform="matrix(0,-1,1,0,-134.00000000000003,856)" style="font-weight:bold; font-size: 12px; text-anchor: start; font-family: arial,helvetica,sans-serif; fill: #333333;" class="" y="301" x="161">ECM convert to Template Bean</text></g><g transform="translate(0,0)"><g transform="matrix(1,0,0,1,193,330)"><path style="fill:none;stroke:#333333;stroke-width:3.0;;" d="m0,0.10990976210008203l168.17488793845556,-0.6611640689089419l1.4849675594740972,42.88065627563577l-168.83646783301916,-0.1320639868744873z"/><path style="fill:#333333;stroke:none;stroke-width:3.0;;stroke: none;" d="m64.248274,-6.1981l38.0093,-2.40741l-0.603966,2.40741l3.76254,0.531494l-2.13063,2.4458l-1.31318,1.85211l3.61304,0l-2.87453,2.84827l2.21614,2.70691l-40.9795,2.25l0.300789,-2.40662l-2.71546,-0.902466l3.31823,-1.50378l-3.85104,-3.49121l3.36488,-1.28223l-2.0523,-1.42377l1.93569,-1.62451z"/></g><text style="font-weight:Normal; font-size: 12px; text-anchor: start; font-family: arial,helvetica,sans-serif; fill: #333333;" class="" y="355" x="208"><tspan x="208">List DocTypes;</tspan></text></g><g transform="translate(0,0)"><g transform="matrix(1,0,0,1,391,330)"><path style="fill:none;stroke:#333333;stroke-width:3.0;;" d="m0,0.2878589007383101l168.17488793845556,-1.7316201804758l1.4849675594740972,112.30648072190321l-168.83646783301916,-0.34588187038556195z"/><path style="fill:#333333;stroke:none;stroke-width:3.0;;stroke: none;" d="m64.248274,-6.1981l38.0093,-2.40741l-0.603966,2.40741l3.76254,0.531494l-2.13063,2.4458l-1.31318,1.85211l3.61304,0l-2.87453,2.84827l2.21614,2.70691l-40.9795,2.25l0.300789,-2.40662l-2.71546,-0.902466l3.31823,-1.50378l-3.85104,-3.49121l3.36488,-1.28223l-2.0523,-1.42377l1.93569,-1.62451z"/></g><text style="font-weight:Normal; font-size: 12px; text-anchor: start; font-family: arial,helvetica,sans-serif; fill: #333333;" class="" y="355" x="406"><tspan x="406">docTypeName</tspan><tspan dy="17" x="406">doctypeDispName</tspan><tspan dy="17" x="406">Map MetaDocType</tspan><tspan dy="17" x="406">etc ..</tspan><tspan dy="17" x="406">Ref table cds</tspan><tspan>_docType</tspan></text></g><g transform="translate(0,0)"><path style="fill:none;stroke:#333333;stroke-width:3.0;;stroke-linejoin: round;" d="m389,302l173,2l0,27l-173,-2z"/><path style="fill:none;stroke:#333333;stroke-width:3.0;;stroke-linejoin: round;" d="m389,327l0,117l173,-2l0,-117"/><text style="font-weight:bold; font-size: 12px; text-anchor: middle; font-family: arial,helvetica,sans-serif; fill: #333333;" class="" y="319" x="475">DocType</text><text style="font-weight:bold; font-size: 12px; text-anchor: middle; font-family: arial,helvetica,sans-serif; fill: #333333;" class="" y="336" x="475"/></g><g transform="translate(0,0)"><path style="fill:none;stroke:#333333;stroke-width:3.0;;stroke-linejoin: round;" d="m191,302l172,2l0,27l-172,-2z"/><path style="fill:none;stroke:#333333;stroke-width:3.0;;stroke-linejoin: round;" d="m191,327l0,49l172,-2l0,-49"/><text style="font-weight:bold; font-size: 12px; text-anchor: middle; font-family: arial,helvetica,sans-serif; fill: #333333;" class="" y="319" x="277">DoctypeTemplate</text><text style="font-weight:bold; font-size: 12px; text-anchor: middle; font-family: arial,helvetica,sans-serif; fill: #333333;" class="" y="336" x="277"/></g><g transform="translate(0,0)"><g transform="matrix(1,0,0,1,591,332)"><path style="fill:none;stroke:#333333;stroke-width:3.0;;" d="m0,0.2878589007383101l168.17488793845556,-1.7316201804758l1.4849675594740972,112.30648072190321l-168.83646783301916,-0.34588187038556195z"/><path style="fill:#333333;stroke:none;stroke-width:3.0;;stroke: none;" d="m64.248274,-6.1981l38.0093,-2.40741l-0.603966,2.40741l3.76254,0.531494l-2.13063,2.4458l-1.31318,1.85211l3.61304,0l-2.87453,2.84827l2.21614,2.70691l-40.9795,2.25l0.300789,-2.40662l-2.71546,-0.902466l3.31823,-1.50378l-3.85104,-3.49121l3.36488,-1.28223l-2.0523,-1.42377l1.93569,-1.62451z"/></g><text style="font-weight:Normal; font-size: 12px; text-anchor: start; font-family: arial,helvetica,sans-serif; fill: #333333;" class="" y="357" x="606"><tspan x="606">MetaName</tspan><tspan dy="17" x="606">MetaDispName</tspan><tspan dy="17" x="606">etc ..</tspan><tspan dy="17" x="606">Ref table cds</tspan><tspan>_meta</tspan><tspan dy="17" x="606">_frofile</tspan><tspan>_field</tspan></text></g><g transform="translate(0,0)"><g transform="matrix(1,0,0,1,697,606)"><path style="fill:none;stroke:#333333;stroke-width:3.0;;" d="m32.49676854,3.1236c31.150494000000002,-5.9157944 104.464422,-3.4079464 117.42780600000002,8.7125336c12.9626496,12.1206624 -19.826719200000003,25.376704 -57.188952,26.892751999999998c-37.363824,1.51480464 -77.142294,-1.5597024 -89.21521800000001,-14.0149168c-9.911462400000001,-10.2271528 3.05197668,-16.6668 28.976517,-21.590384z"/></g><text style="font-weight:bold; font-size: 12px; text-anchor: middle; font-family: arial,helvetica,sans-serif; fill: #333333;" class="svg-txt-center" y="630" x="773">ecm template Bean</text></g><g transform="translate(0,0)"><path style="fill:none;stroke:#333333;stroke-width:2;stroke-dasharray:4,3;;" d="M406,504 C551.5,504 551.5,504  697,504"/><path style="fill:rgb(250,250,250);stroke:#333333;stroke-width:2;;visibility: visible;" d="M697,504 679.6794919243113,493.99999999999994 679.6794919243113,514Z"/><text style="font-weight:Normal; font-size: 12px; text-anchor: middle; font-family: sans-serif; fill: #333333;" class="" y="489" x="683"/><text style="font-weight:Normal; font-size: 12px; text-anchor: start; font-family: sans-serif; fill: #333333;" class="" y="504" x="551"/><text style="font-weight:Normal; font-size: 12px; text-anchor: middle; font-family: sans-serif; fill: #333333;" class="" y="489" x="420"/></g><g transform="translate(0,0)"><path style="fill:none;stroke:#333333;stroke-width:2;stroke-dasharray:4,3;;" d="M555,567 C625,567 625,563  695,563"/><path style="fill:rgb(250,250,250);stroke:#333333;stroke-width:2;;visibility: visible;" d="M695,563 677.6505432218532,553.0503090749905 677.7085865100648,573.0502248492305Z"/><text style="font-weight:Normal; font-size: 12px; text-anchor: middle; font-family: sans-serif; fill: #333333;" class="" y="549" x="681"/><text style="font-weight:Normal; font-size: 12px; text-anchor: start; font-family: sans-serif; fill: #333333;" class="" y="565" x="625"/><text style="font-weight:Normal; font-size: 12px; text-anchor: middle; font-family: sans-serif; fill: #333333;" class="" y="552" x="567"/></g><g transform="translate(0,0)"><path style="fill:none;stroke:#333333;stroke-width:2;stroke-dasharray:4,3;;" d="M548,628 C620.5,628 620.5,625  693,625"/><path style="fill:rgb(250,250,250);stroke:#333333;stroke-width:2;;visibility: visible;" d="M693,625 675.6585144578447,615.0364223698904 675.7005458886691,635.0363782038122Z"/><text style="font-weight:Normal; font-size: 12px; text-anchor: middle; font-family: sans-serif; fill: #333333;" class="" y="611" x="679"/><text style="font-weight:Normal; font-size: 12px; text-anchor: start; font-family: sans-serif; fill: #333333;" class="" y="626" x="620"/><text style="font-weight:Normal; font-size: 12px; text-anchor: middle; font-family: sans-serif; fill: #333333;" class="" y="613" x="560"/></g><g transform="translate(0,0)"><g transform="matrix(1,0,0,1,221,701)"><path style="fill:none;stroke:#333333;stroke-width:3.0;;" d="m2.22670348,-1.34316l150.53292000000002,-0.08129245714285714c3.7379956,0 5.8431876,2.3416423714285717 5.8431876,6.4987577142857145c-0.453934,32.82739971428571 1.4115498800000001,71.30485714285714 1.2054799600000001,113.10025714285715c0.12949048000000002,4.154764285714286 -1.50242832,8.174404285714285 -5.240417600000001,8.174404285714285l-150.12812399999999,-3.0162270857142857c-3.7379956,0 -3.7335716000000003,-1.0008334285714284 -3.7335716000000003,-5.157741428571428l-1.9116451600000002,-114.69609428571427c0,-4.157118857142857 -0.30580268,-4.822267714285714 3.4322024000000004,-4.822267714285714z"/></g><text style="font-weight:bold; font-size: 12px; text-anchor: middle; font-family: arial,helvetica,sans-serif; fill: #ff3300;" class="" y="725" x="300">* call kkp with KC lib</text><text style="font-weight:bold; font-size: 12px; text-anchor: middle; font-family: arial,helvetica,sans-serif; fill: #ff3300;" class="" y="742" x="300"/><text style="font-weight:bold; font-size: 12px; text-anchor: middle; font-family: arial,helvetica,sans-serif; fill: #ff3300;" class="" y="759" x="300"/><text style="font-weight:bold; font-size: 12px; text-anchor: middle; font-family: arial,helvetica,sans-serif; fill: #ff3300;" class="" y="776" x="300">ECM Setup</text><text style="font-weight:bold; font-size: 12px; text-anchor: middle; font-family: arial,helvetica,sans-serif; fill: #ff3300;" class="" y="793" x="300"/><text style="font-weight:bold; font-size: 12px; text-anchor: middle; font-family: arial,helvetica,sans-serif; fill: #ff3300;" class="" y="810" x="300"/></g><g transform="translate(0,0)"><g transform="matrix(1,0,0,1,921,293)"><path style="fill:none;stroke:#333333;stroke-width:3.0;;" d="m0,0.3768334700574241l805.8380047050996,-2.266848236259229l7.115469555813382,147.01939294503694l-809.0080750332169,-0.45279081214109934z"/><path style="fill:#333333;stroke:none;stroke-width:3.0;;stroke: none;" d="m383.248274,-6.1981l38.0093,-2.40741l-0.603966,2.40741l3.76254,0.531494l-2.13063,2.4458l-1.31318,1.85211l3.61304,0l-2.87453,2.84827l2.21614,2.70691l-40.9795,2.25l0.300789,-2.40662l-2.71546,-0.902466l3.31823,-1.50378l-3.85104,-3.49121l3.36488,-1.28223l-2.0523,-1.42377l1.93569,-1.62451z"/></g><text style="font-weight:Normal; font-size: 12px; text-anchor: start; font-family: arial,helvetica,sans-serif; fill: #333333;" class="" y="319" x="936"><tspan x="936">ConfigEcm (CoreLib) (ติว)</tspan><tspan dy="25" x="936">config code : ECM</tspan><tspan>_SERV</tspan><tspan>_URI</tspan><tspan dy="25" x="936">1. function getUrlService from DB for use it all this modue</tspan><tspan dy="25" x="936">2. function update ecm serv to DB for use it all this modue</tspan><tspan dy="25" x="936">3. already above funtion , change to get urlEcmServ form  property.xml  change to configDB</tspan></text></g><g transform="translate(0,0)"><g transform="matrix(1,0,0,1,933,644)"><path style="fill:none;stroke:#333333;stroke-width:3.0;;" d="m0,0.11514356029532404l814.8473737018026,-0.69264807219032l7.195021389356637,44.92259228876128l-818.0528858099857,-0.1383527481542248z"/><path style="fill:#333333;stroke:none;stroke-width:3.0;;stroke: none;" d="m387.248274,-6.1981l38.0093,-2.40741l-0.603966,2.40741l3.76254,0.531494l-2.13063,2.4458l-1.31318,1.85211l3.61304,0l-2.87453,2.84827l2.21614,2.70691l-40.9795,2.25l0.300789,-2.40662l-2.71546,-0.902466l3.31823,-1.50378l-3.85104,-3.49121l3.36488,-1.28223l-2.0523,-1.42377l1.93569,-1.62451z"/></g><text style="font-weight:Normal; font-size: 12px; text-anchor: start; font-family: arial,helvetica,sans-serif; fill: #333333;" class="" y="670" x="948"><tspan x="948">Impact  to srmTemplate function when confirm update .</tspan></text></g><g transform="translate(0,0)"><g transform="matrix(1,0,0,1,934,553)"><path style="fill:none;stroke:#333333;stroke-width:3.0;;" d="m0,0.11514356029532404l814.8473737018026,-0.69264807219032l7.195021389356637,44.92259228876128l-818.0528858099857,-0.1383527481542248z"/><path style="fill:#333333;stroke:none;stroke-width:3.0;;stroke: none;" d="m387.248274,-6.1981l38.0093,-2.40741l-0.603966,2.40741l3.76254,0.531494l-2.13063,2.4458l-1.31318,1.85211l3.61304,0l-2.87453,2.84827l2.21614,2.70691l-40.9795,2.25l0.300789,-2.40662l-2.71546,-0.902466l3.31823,-1.50378l-3.85104,-3.49121l3.36488,-1.28223l-2.0523,-1.42377l1.93569,-1.62451z"/></g><text style="font-weight:Normal; font-size: 12px; text-anchor: start; font-family: arial,helvetica,sans-serif; fill: #333333;" class="" y="579" x="949"><tspan x="949">compare to view</tspan></text></g><g transform="translate(0,0)"><g transform="matrix(1,0,0,1,930,732)"><path style="fill:none;stroke:#333333;stroke-width:3.0;;" d="m0,0.11514356029532404l814.8473737018026,-0.69264807219032l7.195021389356637,44.92259228876128l-818.0528858099857,-0.1383527481542248z"/><path style="fill:#333333;stroke:none;stroke-width:3.0;;stroke: none;" d="m387.248274,-6.1981l38.0093,-2.40741l-0.603966,2.40741l3.76254,0.531494l-2.13063,2.4458l-1.31318,1.85211l3.61304,0l-2.87453,2.84827l2.21614,2.70691l-40.9795,2.25l0.300789,-2.40662l-2.71546,-0.902466l3.31823,-1.50378l-3.85104,-3.49121l3.36488,-1.28223l-2.0523,-1.42377l1.93569,-1.62451z"/></g><text style="font-weight:Normal; font-size: 12px; text-anchor: start; font-family: arial,helvetica,sans-serif; fill: #333333;" class="" y="758" x="945"><tspan x="945">compare to update data</tspan></text></g><g transform="translate(0,0)"><g transform="matrix(1,0,0,1,933,828)"><path style="fill:none;stroke:#333333;stroke-width:3.0;;" d="m0,0.24598851517637407l814.8473737018026,-1.4797481542247746l7.195021389356637,95.97099261689911l-818.0528858099857,-0.29557178014766206z"/><path style="fill:#333333;stroke:none;stroke-width:3.0;;stroke: none;" d="m387.248274,-6.1981l38.0093,-2.40741l-0.603966,2.40741l3.76254,0.531494l-2.13063,2.4458l-1.31318,1.85211l3.61304,0l-2.87453,2.84827l2.21614,2.70691l-40.9795,2.25l0.300789,-2.40662l-2.71546,-0.902466l3.31823,-1.50378l-3.85104,-3.49121l3.36488,-1.28223l-2.0523,-1.42377l1.93569,-1.62451z"/></g><text style="font-weight:Normal; font-size: 12px; text-anchor: start; font-family: arial,helvetica,sans-serif; fill: #333333;" class="" y="854" x="948"><tspan x="948">Export Excel </tspan><tspan dy="25" x="948">1. ecm</tspan><tspan dy="25" x="948">2. srm</tspan></text></g><g transform="translate(0,0)"><path style="fill:none;stroke:#333333;stroke-width:3.0;;stroke-linejoin: round;" d="m589,304l172,2l0,27l-172,-2z"/><path style="fill:none;stroke:#333333;stroke-width:3.0;;stroke-linejoin: round;" d="m589,329l0,116l172,-2l0,-116"/><text style="font-weight:bold; font-size: 12px; text-anchor: middle; font-family: arial,helvetica,sans-serif; fill: #333333;" class="" y="321" x="675">MetaDoc</text><text style="font-weight:bold; font-size: 12px; text-anchor: middle; font-family: arial,helvetica,sans-serif; fill: #333333;" class="" y="338" x="675"/></g><g transform="translate(0,0)"><g transform="matrix(1,0,0,1,934,966)"><path style="fill:none;stroke:#333333;stroke-width:3.0;;" d="m0,0.11514356029532404l814.8473737018026,-0.69264807219032l7.195021389356637,44.92259228876128l-818.0528858099857,-0.1383527481542248z"/><path style="fill:#333333;stroke:none;stroke-width:3.0;;stroke: none;" d="m387.248274,-6.1981l38.0093,-2.40741l-0.603966,2.40741l3.76254,0.531494l-2.13063,2.4458l-1.31318,1.85211l3.61304,0l-2.87453,2.84827l2.21614,2.70691l-40.9795,2.25l0.300789,-2.40662l-2.71546,-0.902466l3.31823,-1.50378l-3.85104,-3.49121l3.36488,-1.28223l-2.0523,-1.42377l1.93569,-1.62451z"/></g><text style="font-weight:Normal; font-size: 12px; text-anchor: start; font-family: arial,helvetica,sans-serif; fill: #333333;" class="" y="992" x="949"><tspan x="949">import Excel </tspan></text></g><g transform="translate(0,0)"><g transform="matrix(1,0,0,1,202,468)"><path style="fill:#333333;stroke:none;stroke-width:3.0;;stroke: none;" d="m654.000023082355,0.8461922448917795c0,0.4672230438948052 -12.392993401693497,0.8460675460468425 -27.67205060442829,0.8460675460468425l-598.6558987911434,0.30774027964562994c-15.283135085471537,0 -27.672073686783403,-0.37897155380536934 -27.672073686783403,-0.8461922448917795c0,-0.4672230438948052 12.388938601311867,-0.8460675460468425 27.672073686783403,-0.8460675460468425l598.6558987911434,-0.30774027964562994c15.279057202734796,0 27.67205060442829,0.37884450215203735 27.67205060442829,0.8461922448917795"/></g></g><g transform="translate(0,0)"><g transform="matrix(1,0,0,1,197,671)"><path style="fill:#333333;stroke:none;stroke-width:3.0;;stroke: none;" d="m654.000023082355,0.8461922448917795c0,0.4672230438948052 -12.392993401693497,0.8460675460468425 -27.67205060442829,0.8460675460468425l-598.6558987911434,0.30774027964562994c-15.283135085471537,0 -27.672073686783403,-0.37897155380536934 -27.672073686783403,-0.8461922448917795c0,-0.4672230438948052 12.388938601311867,-0.8460675460468425 27.672073686783403,-0.8460675460468425l598.6558987911434,-0.30774027964562994c15.279057202734796,0 27.67205060442829,0.37884450215203735 27.67205060442829,0.8461922448917795"/></g></g><g transform="translate(0,0)"><g transform="matrix(1,0,0,1,224,485)"><path style="fill:none;stroke:#333333;stroke-width:3.0;;" d="m2.5367508,-0.41495999999999994l171.4932,-0.025114742857142856c4.258476,0 6.656796,0.7234342285714286 6.656796,2.0077462857142856c-0.51714,10.141798285714284 1.6080948000000002,22.029142857142855 1.3733316,34.941542857142856c0.1475208,1.283585714285714 -1.7116272,2.525425714285714 -5.970096000000001,2.525425714285714l-171.03204,-0.9318425142857143c-4.258476,0 -4.253436000000001,-0.3092005714285714 -4.253436000000001,-1.593448571428571l-2.1778236,-35.43456571428571c0,-1.2843131428571428 -0.3483828,-1.4898062857142855 3.9101040000000005,-1.4898062857142855z"/></g><text style="font-weight:bold; font-size: 12px; text-anchor: middle; font-family: arial,helvetica,sans-serif; fill: #333333;" class="" y="509" x="314">1. ecm to template Bean</text></g><g transform="translate(0,0)"><g transform="matrix(1,0,0,1,227,548)"><path style="fill:none;stroke:#333333;stroke-width:3.0;;" d="m4.59433756,-0.41495999999999994l310.59324,-0.025114742857142856c7.712573199999999,0 12.0561972,0.7234342285714286 12.0561972,2.0077462857142856c-0.9365979999999999,10.141798285714284 2.91243836,22.029142857142855 2.48725612,34.941542857142856c0.26717656,1.283585714285714 -3.0999470399999995,2.525425714285714 -10.812507199999999,2.525425714285714l-309.75802799999997,-0.9318425142857143c-7.712573199999999,0 -7.7034452,-0.3092005714285714 -7.7034452,-1.593448571428571l-3.94428052,-35.43456571428571c0,-1.2843131428571428 -0.63095996,-1.4898062857142855 7.0816328,-1.4898062857142855z"/></g><text style="font-weight:bold; font-size: 12px; text-anchor: middle; font-family: arial,helvetica,sans-serif; fill: #333333;" class="" y="572" x="390">2. (input from SRM) DocTypeMeta to template Bean</text></g><g transform="translate(0,0)"><g transform="matrix(1,0,0,1,224,601)"><path style="fill:none;stroke:#333333;stroke-width:3.0;;" d="m4.5379653200000005,-0.6005999999999999l306.78228,-0.03635028571428571c7.6179404,0 11.9082684,1.0470758571428571 11.9082684,2.9059485714285715c-0.9251060000000001,14.678918571428571 2.87670292,31.884285714285713 2.45673764,50.57328571428571c0.26389832,1.8578214285714285 -3.06191088,3.6552214285714286 -10.679838400000001,3.6552214285714286l-305.957316,-1.3487194285714286c-7.6179404,0 -7.608924400000001,-0.44752714285714285 -7.608924400000001,-2.3063071428571424l-3.8958844400000006,-51.28687142857142c0,-1.8588742857142857 -0.62321812,-2.1562985714285716 6.994741600000001,-2.1562985714285716z"/></g><text style="font-weight:bold; font-size: 12px; text-anchor: middle; font-family: arial,helvetica,sans-serif; fill: #333333;" class="" y="625" x="385">3. (SRM and ECM) DocTypeMeta to template Bean</text><text style="font-weight:bold; font-size: 12px; text-anchor: middle; font-family: arial,helvetica,sans-serif; fill: #333333;" class="" y="642" x="385">(อาจจะเอาไปอยู่ใน cds-core-lib)</text></g><g transform="translate(0,0)"><g transform="matrix(1,0,0,1,701,485)"><path style="fill:none;stroke:#333333;stroke-width:3.0;;" d="m27.18683904,3.1236c26.060544,-5.9157944 87.395072,-3.4079464 98.24025600000002,8.7125336c10.8445696,12.1206624 -16.587059200000002,25.376704 -47.844352,26.892751999999998c-31.258624,1.51480464 -64.537344,-1.5597024 -74.637568,-14.0149168c-8.2919424,-10.2271528 2.55328768,-16.6668 24.241792,-21.590384z"/></g><text style="font-weight:bold; font-size: 12px; text-anchor: middle; font-family: arial,helvetica,sans-serif; fill: #333333;" class="svg-txt-center" y="509" x="765">template Bean</text></g><g transform="translate(0,0)"><g transform="matrix(1,0,0,1,699,544)"><path style="fill:none;stroke:#333333;stroke-width:3.0;;" d="m32.49676854,3.1236c31.150494000000002,-5.9157944 104.464422,-3.4079464 117.42780600000002,8.7125336c12.9626496,12.1206624 -19.826719200000003,25.376704 -57.188952,26.892751999999998c-37.363824,1.51480464 -77.142294,-1.5597024 -89.21521800000001,-14.0149168c-9.911462400000001,-10.2271528 3.05197668,-16.6668 28.976517,-21.590384z"/></g><text style="font-weight:bold; font-size: 12px; text-anchor: middle; font-family: arial,helvetica,sans-serif; fill: #333333;" class="svg-txt-center" y="568" x="775">ecm template Bean</text></g><text style="font-weight:Normal; font-size: 16px; text-anchor: end; font-family: Arial; fill: #ccc;" y="1010" x="1748">www.sketchboard.io</text></svg>