<svg height="3758" width="6762" viewBox="372 256 6762 3758" style="background-color:transparent;" preserveAspectRatio="xMinYMin meet" xmlns:xlink="http://www.w3.org/1999/xlink" xmlns="http://www.w3.org/2000/svg"><defs><style type="text/css">.svg-txt-center tspan {text-anchor: middle;}.svg-txt-right tspan {text-anchor: end;}</style></defs><g transform="translate(0,0)"><g transform="matrix(1,0,0,1,715,515)"><path style="fill:none;stroke:#333333;stroke-width:3.0;;fill: none;" d="m2.553979025293029,1.9514851485148514l176.93042813078347,-1.7369287128712871l0.34634265268352865,179.562297029703l-179.70098457742134,-0.6948570297029704z"/><path style="fill:none;stroke:#333333;stroke-width:3.0;;fill: none;" d="m2.553979025293029,1.9514851485148514l176.58397532387414,-2.0843572277227724l0.6926746452806909,23.970653465346537l-177.96943121529918,0z"/><path style="fill:none;stroke:#333333;stroke-width:3.0;;fill: none;" d="m38.94076249228871,9.294059405940594l131.98821468229485,-0.3476459405940594l-0.3463284392350401,8.124237623762376l-132.33466748920418,-1.0420681188118812z"/><path style="fill:none;stroke:#333333;stroke-width:3.0;;fill: none;" d="m10.03401949413942,8.795049504950494l-3.225631980259099,3.684439603960396l3.9182924120913016,3.193649108910891"/><path style="fill:none;stroke:#333333;stroke-width:3.0;;" d="m7.298179395434916,12.488934653465346l6.050593954349167,-0.8685089108910891"/><path style="fill:none;stroke:#333333;stroke-width:3.0;;fill: none;" d="m17.58853843306601,8.795049504950494l3.9182924120913016,3.684439603960396l-3.9182924120913016,3.193649108910891"/><path style="fill:none;stroke:#333333;stroke-width:3.0;;" d="m21.01703541024059,12.501980198019801l-6.050593954349167,-0.3474285148514852"/><path style="fill:none;stroke:#333333;stroke-width:3.0;;fill: none;" d="m32.86614780999383,14.56930693069307c-0.6510718815545959,0.653089900990099 -1.5505166687230105,1.057298613861386 -2.544011844540407,1.057298613861386c-1.9870010117211598,0 -3.597779148673658,-1.615751287128713 -3.597779148673658,-3.6089465346534655c0,-1.9936372277227723 1.6107781369524985,-3.6089465346534655 3.597779148673658,-3.6089465346534655c0.9934951758173965,0 2.0913064034546576,0.6028324752475248 2.742378285009253,1.6536047524752475"/><path style="fill:none;stroke:#333333;stroke-width:3.0;;" d="m33.24377781616286,11.056099009900992l-1.733934114743985,-0.9065334653465346l1.6496270450339297,-1.053010693069307z"/></g><text style="font-weight:bold; font-size: 12px; text-anchor: middle; font-family: arial,helvetica,sans-serif; fill: #333333;" class="svg-txt-center" y="710" x="805">checklistExcel.html</text></g><g transform="translate(0,0)"><g transform="matrix(1,0,0,1,5963,1364)"><path style="fill:none;stroke:#333333;stroke-width:3.0;;" d="m20.459455266747028,1.6551882475885311l340.0129473773645,-1.6393764616162425c27.29803308893854,-0.13162225735024488 31.462281020982388,3.1292335930507758 32.003037431768576,7.8325718738985435l4.078814066726164,35.48098377434879c0.7004334487012137,6.093029510477548 -4.708872939606941,9.809741855430813 -26.98289776025061,9.65408306040035l-351.936414450705,-2.4590646924243638c-9.731116337109432,-0.06799067968084124 -17.776625758863243,-2.2753561661356474 -17.57020647098611,-5.100264109734292l2.82379326781301,-38.668669335138496c0.20628233390364212,-2.8249202389221066 7.837664118276435,-5.053336958520528 17.57020647098611,-5.100264109734292z"/></g><text style="font-weight:bold; font-size: 18px; text-anchor: middle; font-family: arial,helvetica,sans-serif; fill: #333333;" class="svg-txt-center" y="1398" x="6161">/updateMetadata/getDocDraftCustomer</text></g><g transform="translate(0,0)"><g transform="matrix(1,0,0,1,6519,1176)"><path style="fill:none;stroke:#333333;stroke-width:3.0;;" d="m30.999174646586408,1.6551882475885311l515.1711323899463,-1.6393764616162425c41.36065619536143,-0.13162225735024488 47.67012275906423,3.1292335930507758 48.48945065419482,7.8325718738985435l6.18002131322146,35.48098377434879c1.061262801062445,6.093029510477548 -7.134655969101427,9.809741855430813 -40.88317842462214,9.65408306040035l-533.2369915919772,-2.4590646924243638c-14.744115662287017,-0.06799067968084124 -26.934281452823097,-2.2753561661356474 -26.621524956039565,-5.100264109734292l4.278474648201531,-38.668669335138496c0.31254899076309417,-2.8249202389221066 11.875248664055205,-5.053336958520528 26.621524956039565,-5.100264109734292z"/></g><text style="font-weight:bold; font-size: 18px; text-anchor: middle; font-family: arial,helvetica,sans-serif; fill: #333333;" class="svg-txt-center" y="1210" x="6819">/businesscomponent/getTemplateMetadataByTemplateTypeCode</text></g><g transform="translate(0,0)"><g transform="matrix(1,0,0,1,6513,1481)"><path style="fill:none;stroke:#333333;stroke-width:3.0;;" d="m14.827938539283831,1.6551882475885311l246.423524993191,-1.6393764616162425c19.784180546781215,-0.13162225735024488 22.80220871975239,3.1292335930507758 23.19412056292319,7.8325718738985435l2.956110194824265,35.48098377434879c0.5076373731748696,6.093029510477548 -3.412743771886849,9.809741855430813 -19.555787013110923,9.65408306040035l-255.06502764482912,-2.4590646924243638c-7.052601991793956,-0.06799067968084124 -12.883564628267049,-2.2753561661356474 -12.733962770638925,-5.100264109734292l2.046537040056399,-38.668669335138496c0.14950260058168002,-2.8249202389221066 5.68032727763974,-5.053336958520528 12.733962770638925,-5.100264109734292z"/></g><text style="font-weight:bold; font-size: 18px; text-anchor: middle; font-family: arial,helvetica,sans-serif; fill: #333333;" class="svg-txt-center" y="1515" x="6656">/customers/getCustomers</text></g><g transform="translate(0,0)"><g transform="matrix(1,0,0,1,6359,543)"><path style="fill:none;stroke:#333333;stroke-width:3.0;;" d="m2.782678524884328,3.9921504081082064c5.145712268976438,-7.321759950172042 21.374237077972854,-4.308667201704669 22.166773888819417,6.888925053519851c0.7910019269854806,11.19716194074127 -7.91651663098454,17.22753788109624 -17.02106161984298,12.489386088358973c-9.103010104997356,-4.734801487117676 -9.707217607735664,-12.886679057811275 -5.145712268976438,-19.378311141878825z"/></g></g><g transform="translate(0,0)"><path style="fill:none;stroke:#333333;stroke-width:2;stroke-dasharray:4,3;;" d="M6386,555 C6416,555 6416,555  6446,555"/><path style="fill:rgb(250,250,250);stroke:#333333;stroke-width:2;;visibility: visible;" d="M6446,555 6428.679491924311,545 6428.679491924311,565Z"/><text style="font-weight:Normal; font-size: 12px; text-anchor: middle; font-family: sans-serif; fill: #333333;" class="" y="540" x="6432"/><text style="font-weight:Normal; font-size: 12px; text-anchor: start; font-family: sans-serif; fill: #333333;" class="" y="555" x="6416"/><text style="font-weight:Normal; font-size: 12px; text-anchor: middle; font-family: sans-serif; fill: #333333;" class="" y="540" x="6400"/></g><g transform="translate(0,0)"><g transform="matrix(1,0,0,1,5360,964)"><path style="fill:none;stroke:#333333;stroke-width:3.0;;" d="m2.782678524884328,3.9921504081082064c5.145712268976438,-7.321759950172042 21.374237077972854,-4.308667201704669 22.166773888819417,6.888925053519851c0.7910019269854806,11.19716194074127 -7.91651663098454,17.22753788109624 -17.02106161984298,12.489386088358973c-9.103010104997356,-4.734801487117676 -9.707217607735664,-12.886679057811275 -5.145712268976438,-19.378311141878825z"/></g></g><g transform="translate(0,0)"><path style="fill:none;stroke:#333333;stroke-width:2;stroke-dasharray:4,3;;" d="M5333,976 C5345.5,976 5345.5,976  5358,976"/><text style="font-weight:Normal; font-size: 12px; text-anchor: middle; font-family: sans-serif; fill: #333333;" class="" y="961" x="5342"/><text style="font-weight:Normal; font-size: 12px; text-anchor: start; font-family: sans-serif; fill: #333333;" class="" y="976" x="5345"/><text style="font-weight:Normal; font-size: 12px; text-anchor: middle; font-family: sans-serif; fill: #333333;" class="" y="961" x="5347"/></g><g transform="translate(0,0)"><path style="fill:none;stroke:#333333;stroke-width:2;;" d="M562,607 C636.5,607 636.5,605  711,605"/><polyline style="fill:#ffffff;stroke:#333333;stroke-width:2;fill-opacity:0;" points="693,615 711,605 693,595"/><text style="font-weight:Normal; font-size: 12px; text-anchor: middle; font-family: sans-serif; fill: #333333;" class="" y="591" x="697"/><text style="font-weight:Normal; font-size: 12px; text-anchor: start; font-family: sans-serif; fill: #333333;" class="" y="606" x="636"/><text style="font-weight:Normal; font-size: 12px; text-anchor: middle; font-family: sans-serif; fill: #333333;" class="" y="592" x="574"/></g><g transform="translate(0,0)"><path style="fill:none;stroke:#333333;stroke-width:2;stroke-dasharray:4,3;;" d="M5387,976 C5580,976 5580,998  5773,998"/><text style="font-weight:Normal; font-size: 12px; text-anchor: middle; font-family: sans-serif; fill: #333333;" class="" y="983" x="5757"/><text style="font-weight:Normal; font-size: 12px; text-anchor: start; font-family: sans-serif; fill: #333333;" class="" y="987" x="5580"/><text style="font-weight:Normal; font-size: 12px; text-anchor: middle; font-family: sans-serif; fill: #333333;" class="" y="961" x="5400"/></g><g transform="translate(0,0)"><path style="fill:none;stroke:#333333;stroke-width:2;stroke-dasharray:4,3;;" d="M5388,975 5976,959 6016,960 6368,958 6370,571"/><text style="font-weight:Normal; font-size: 12px; text-anchor: middle; font-family: sans-serif; fill: #333333;" class="" y="585" x="6356"/><text style="font-weight:Normal; font-size: 12px; text-anchor: start; font-family: sans-serif; fill: #333333;" class="" y="948" x="6016"/><text style="font-weight:Normal; font-size: 12px; text-anchor: middle; font-family: sans-serif; fill: #333333;" class="" y="961" x="5399"/></g><g transform="translate(0,0)"><path style="fill:none;stroke:#333333;stroke-width:2;stroke-dasharray:4,3;;" d="M5463,548 C5910,548 5910,555  6357,555"/><text style="font-weight:Normal; font-size: 12px; text-anchor: middle; font-family: sans-serif; fill: #333333;" class="" y="540" x="6341"/><text style="font-weight:Normal; font-size: 12px; text-anchor: start; font-family: sans-serif; fill: #333333;" class="" y="551" x="5910"/><text style="font-weight:Normal; font-size: 12px; text-anchor: middle; font-family: sans-serif; fill: #333333;" class="" y="533" x="5476"/></g><g transform="translate(0,0)"><path style="fill:none;stroke:#333333;stroke-width:2;stroke-dasharray:4,3;;" d="M5167,1075 C5219,1075 5219,1052  5271,1052"/><text style="font-weight:Normal; font-size: 12px; text-anchor: middle; font-family: sans-serif; fill: #333333;" class="" y="1041" x="5252"/><text style="font-weight:Normal; font-size: 12px; text-anchor: start; font-family: sans-serif; fill: #333333;" class="" y="1063" x="5219"/><text style="font-weight:Normal; font-size: 12px; text-anchor: middle; font-family: sans-serif; fill: #333333;" class="" y="1057" x="5176"/></g><g transform="translate(0,0)"><g transform="matrix(1,0,0,1,6332,474)"><path style="fill:none;stroke:#333333;stroke-width:3.0;;" d="m2.782678524884328,3.9921504081082064c5.145712268976438,-7.321759950172042 21.374237077972854,-4.308667201704669 22.166773888819417,6.888925053519851c0.7910019269854806,11.19716194074127 -7.91651663098454,17.22753788109624 -17.02106161984298,12.489386088358973c-9.103010104997356,-4.734801487117676 -9.707217607735664,-12.886679057811275 -5.145712268976438,-19.378311141878825z"/></g></g><g transform="translate(0,0)"><path style="fill:none;stroke:#333333;stroke-width:2;stroke-dasharray:4,3;;" d="M6359,486 C6396.5,486 6396.5,454  6434,454"/><path style="fill:rgb(250,250,250);stroke:#333333;stroke-width:2;;visibility: visible;" d="M6434,454 6416.262750193197,444.7593306903102 6417.128720726436,464.7405742711177Z"/><text style="font-weight:Normal; font-size: 12px; text-anchor: middle; font-family: sans-serif; fill: #333333;" class="" y="447" x="6416"/><text style="font-weight:Normal; font-size: 12px; text-anchor: start; font-family: sans-serif; fill: #333333;" class="" y="470" x="6396"/><text style="font-weight:Normal; font-size: 12px; text-anchor: middle; font-family: sans-serif; fill: #333333;" class="" y="467" x="6365"/></g><g transform="translate(0,0)"><path style="fill:none;stroke:#333333;stroke-width:2;stroke-dasharray:4,3;;" d="M5443,495 C5886.5,495 5886.5,486  6330,486"/><text style="font-weight:Normal; font-size: 12px; text-anchor: middle; font-family: sans-serif; fill: #333333;" class="" y="472" x="6314"/><text style="font-weight:Normal; font-size: 12px; text-anchor: start; font-family: sans-serif; fill: #333333;" class="" y="490" x="5886"/><text style="font-weight:Normal; font-size: 12px; text-anchor: middle; font-family: sans-serif; fill: #333333;" class="" y="480" x="5455"/></g><g transform="translate(0,0)"><path style="fill:none;stroke:rgb(0,127,0);stroke-width:2;stroke-dasharray:4,3;;" d="M5404,1052 6329,1055 6329,491"/><text style="font-weight:Normal; font-size: 12px; text-anchor: middle; font-family: sans-serif; fill: #333333;" class="" y="505" x="6315"/><text style="font-weight:Normal; font-size: 12px; text-anchor: start; font-family: sans-serif; fill: #333333;" class="" y="1043" x="6329"/><text style="font-weight:Normal; font-size: 12px; text-anchor: middle; font-family: sans-serif; fill: #333333;" class="" y="1037" x="5416"/></g><g transform="translate(0,0)"><g transform="matrix(1,0,0,1,4644,1463)"><path style="fill:none;stroke:#333333;stroke-width:3.0;;" d="m0,0.11514356029532404l165.17176493955458,-0.69264807219032l1.4584502816263454,44.92259228876128l-165.82153090742955,-0.1383527481542248z"/><path style="fill:#333333;stroke:none;stroke-width:3.0;;stroke: none;" d="m63.248274,-6.1981l38.0093,-2.40741l-0.603966,2.40741l3.76254,0.531494l-2.13063,2.4458l-1.31318,1.85211l3.61304,0l-2.87453,2.84827l2.21614,2.70691l-40.9795,2.25l0.300789,-2.40662l-2.71546,-0.902466l3.31823,-1.50378l-3.85104,-3.49121l3.36488,-1.28223l-2.0523,-1.42377l1.93569,-1.62451z"/></g><text style="font-weight:Normal; font-size: 12px; text-anchor: start; font-family: arial,helvetica,sans-serif; fill: #333333;" class="" y="1489" x="4659"><tspan x="4659">เปลี่ยนแปลงคำค้น</tspan></text></g><g transform="translate(0,0)"><path style="fill:none;stroke:#333333;stroke-width:2;stroke-dasharray:4,3;;" d="M4812,1485 4856,1492"/><text style="font-weight:Normal; font-size: 12px; text-anchor: middle; font-family: sans-serif; fill: #333333;" class="" y="1476" x="4844"/><text style="font-weight:Normal; font-size: 12px; text-anchor: start; font-family: sans-serif; fill: #333333;" class="" y="1489" x="4834"/><text style="font-weight:Normal; font-size: 12px; text-anchor: middle; font-family: sans-serif; fill: #333333;" class="" y="1472" x="4826"/></g><g transform="translate(0,0)"><g transform="matrix(1,0,0,1,6383,1191)"><path style="fill:none;stroke:#333333;stroke-width:3.0;;" d="m2.782678524884328,3.9921504081082064c5.145712268976438,-7.321759950172042 21.374237077972854,-4.308667201704669 22.166773888819417,6.888925053519851c0.7910019269854806,11.19716194074127 -7.91651663098454,17.22753788109624 -17.02106161984298,12.489386088358973c-9.103010104997356,-4.734801487117676 -9.707217607735664,-12.886679057811275 -5.145712268976438,-19.378311141878825z"/></g></g><g transform="translate(0,0)"><path style="fill:none;stroke:#333333;stroke-width:2;stroke-dasharray:4,3;;" d="M5063,1493 5119,1497"/><text style="font-weight:Normal; font-size: 12px; text-anchor: middle; font-family: sans-serif; fill: #333333;" class="" y="1482" x="5106"/><text style="font-weight:Normal; font-size: 12px; text-anchor: start; font-family: sans-serif; fill: #333333;" class="" y="1495" x="5091"/><text style="font-weight:Normal; font-size: 12px; text-anchor: middle; font-family: sans-serif; fill: #333333;" class="" y="1479" x="5076"/></g><g transform="translate(0,0)"><path style="fill:none;stroke:#333333;stroke-width:2;stroke-dasharray:4,3;;" d="M5150,1498 C5150,1578 5203,1418  5256,1418"/><text style="font-weight:Normal; font-size: 12px; text-anchor: middle; font-family: sans-serif; fill: #333333;" class="" y="1416" x="5234"/><text style="font-weight:Normal; font-size: 12px; text-anchor: start; font-family: sans-serif; fill: #333333;" class="" y="1488" x="5183"/><text style="font-weight:Normal; font-size: 12px; text-anchor: middle; font-family: sans-serif; fill: #333333;" class="" y="1478" x="5151"/></g><g transform="translate(0,0)"><path style="fill:none;stroke:#333333;stroke-width:2;stroke-dasharray:4,3;;" d="M5150,1498 C5150,1503.5 5204.5,1509  5259,1509"/><text style="font-weight:Normal; font-size: 12px; text-anchor: middle; font-family: sans-serif; fill: #333333;" class="" y="1493" x="5244"/><text style="font-weight:Normal; font-size: 12px; text-anchor: start; font-family: sans-serif; fill: #333333;" class="" y="1505" x="5184"/><text style="font-weight:Normal; font-size: 12px; text-anchor: middle; font-family: sans-serif; fill: #333333;" class="" y="1484" x="5164"/></g><g transform="translate(0,0)"><path style="fill:none;stroke:#333333;stroke-width:2;stroke-dasharray:4,3;;" d="M5150,1498 C5150,1551.5 5207,1605  5264,1605"/><text style="font-weight:Normal; font-size: 12px; text-anchor: middle; font-family: sans-serif; fill: #333333;" class="" y="1584" x="5262"/><text style="font-weight:Normal; font-size: 12px; text-anchor: start; font-family: sans-serif; fill: #333333;" class="" y="1571" x="5185"/><text style="font-weight:Normal; font-size: 12px; text-anchor: middle; font-family: sans-serif; fill: #333333;" class="" y="1496" x="5170"/></g><g transform="translate(0,0)"><g transform="matrix(1,0,0,1,5364,1397)"><path style="fill:none;stroke:#333333;stroke-width:3.0;;" d="m2.782678524884328,3.9921504081082064c5.145712268976438,-7.321759950172042 21.374237077972854,-4.308667201704669 22.166773888819417,6.888925053519851c0.7910019269854806,11.19716194074127 -7.91651663098454,17.22753788109624 -17.02106161984298,12.489386088358973c-9.103010104997356,-4.734801487117676 -9.707217607735664,-12.886679057811275 -5.145712268976438,-19.378311141878825z"/></g></g><g transform="translate(0,0)"><path style="fill:none;stroke:#333333;stroke-width:2;stroke-dasharray:4,3;;" d="M5326,1418 C5344,1418 5344,1409  5362,1409"/><text style="font-weight:Normal; font-size: 12px; text-anchor: middle; font-family: sans-serif; fill: #333333;" class="" y="1398" x="5343"/><text style="font-weight:Normal; font-size: 12px; text-anchor: start; font-family: sans-serif; fill: #333333;" class="" y="1413" x="5344"/><text style="font-weight:Normal; font-size: 12px; text-anchor: middle; font-family: sans-serif; fill: #333333;" class="" y="1400" x="5335"/></g><g transform="translate(0,0)"><path style="fill:none;stroke:#333333;stroke-width:2;stroke-dasharray:4,3;;" d="M5391,1409 C5881,1409 6371,989.5  6371,570"/><text style="font-weight:Normal; font-size: 12px; text-anchor: middle; font-family: sans-serif; fill: #333333;" class="" y="569" x="6349"/><text style="font-weight:Normal; font-size: 12px; text-anchor: start; font-family: sans-serif; fill: #333333;" class="" y="1146" x="6064"/><text style="font-weight:Normal; font-size: 12px; text-anchor: middle; font-family: sans-serif; fill: #333333;" class="" y="1388" x="5391"/></g><g transform="translate(0,0)"><path style="fill:none;stroke:#333333;stroke-width:2;stroke-dasharray:4,3;;" d="M5391,1409 C5676,1409 5676,1390  5961,1390"/><text style="font-weight:Normal; font-size: 12px; text-anchor: middle; font-family: sans-serif; fill: #333333;" class="" y="1376" x="5945"/><text style="font-weight:Normal; font-size: 12px; text-anchor: start; font-family: sans-serif; fill: #333333;" class="" y="1399" x="5676"/><text style="font-weight:Normal; font-size: 12px; text-anchor: middle; font-family: sans-serif; fill: #333333;" class="" y="1394" x="5403"/></g><g transform="translate(0,0)"><g transform="matrix(1,0,0,1,436,764)"><path style="fill:none;stroke:#333333;stroke-width:3.0;;" d="m0,0.11514356029532404l165.17176493955458,-0.69264807219032l1.4584502816263454,44.92259228876128l-165.82153090742955,-0.1383527481542248z"/><path style="fill:#333333;stroke:none;stroke-width:3.0;;stroke: none;" d="m63.248274,-6.1981l38.0093,-2.40741l-0.603966,2.40741l3.76254,0.531494l-2.13063,2.4458l-1.31318,1.85211l3.61304,0l-2.87453,2.84827l2.21614,2.70691l-40.9795,2.25l0.300789,-2.40662l-2.71546,-0.902466l3.31823,-1.50378l-3.85104,-3.49121l3.36488,-1.28223l-2.0523,-1.42377l1.93569,-1.62451z"/></g><text style="font-weight:Normal; font-size: 12px; text-anchor: start; font-family: arial,helvetica,sans-serif; fill: #333333;" class="" y="790" x="451"><tspan x="451">นำฝากเอกสารทั่วไป</tspan></text></g><g transform="translate(0,0)"><g transform="matrix(1,0,0,1,6443,1190)"><path style="fill:none;stroke:#333333;stroke-width:3.0;;" d="m2.782678524884328,3.9921504081082064c5.145712268976438,-7.321759950172042 21.374237077972854,-4.308667201704669 22.166773888819417,6.888925053519851c0.7910019269854806,11.19716194074127 -7.91651663098454,17.22753788109624 -17.02106161984298,12.489386088358973c-9.103010104997356,-4.734801487117676 -9.707217607735664,-12.886679057811275 -5.145712268976438,-19.378311141878825z"/></g></g><g transform="translate(0,0)"><path style="fill:none;stroke:#333333;stroke-width:2;stroke-dasharray:4,3;;" d="M6470,1202 C6493.5,1202 6493.5,1202  6517,1202"/><text style="font-weight:Normal; font-size: 12px; text-anchor: middle; font-family: sans-serif; fill: #333333;" class="" y="1187" x="6501"/><text style="font-weight:Normal; font-size: 12px; text-anchor: start; font-family: sans-serif; fill: #333333;" class="" y="1202" x="6493"/><text style="font-weight:Normal; font-size: 12px; text-anchor: middle; font-family: sans-serif; fill: #333333;" class="" y="1187" x="6484"/></g><g transform="translate(0,0)"><path style="fill:none;stroke:#333333;stroke-width:2;stroke-dasharray:4,3;;" d="M6441,1202 C5916,1202 5916,1409  5391,1409"/><text style="font-weight:Normal; font-size: 12px; text-anchor: middle; font-family: sans-serif; fill: #333333;" class="" y="1419" x="5408"/><text style="font-weight:Normal; font-size: 12px; text-anchor: start; font-family: sans-serif; fill: #333333;" class="" y="1305" x="5916"/><text style="font-weight:Normal; font-size: 12px; text-anchor: middle; font-family: sans-serif; fill: #333333;" class="" y="1218" x="6430"/></g><g transform="translate(0,0)"><g transform="matrix(1,0,0,1,6461,1495)"><path style="fill:none;stroke:#333333;stroke-width:3.0;;" d="m2.782678524884328,3.9921504081082064c5.145712268976438,-7.321759950172042 21.374237077972854,-4.308667201704669 22.166773888819417,6.888925053519851c0.7910019269854806,11.19716194074127 -7.91651663098454,17.22753788109624 -17.02106161984298,12.489386088358973c-9.103010104997356,-4.734801487117676 -9.707217607735664,-12.886679057811275 -5.145712268976438,-19.378311141878825z"/></g></g><g transform="translate(0,0)"><path style="fill:none;stroke:#333333;stroke-width:2;stroke-dasharray:4,3;;" d="M6488,1507 C6499.5,1507 6499.5,1507  6511,1507"/><text style="font-weight:Normal; font-size: 12px; text-anchor: middle; font-family: sans-serif; fill: #333333;" class="" y="1492" x="6495"/><text style="font-weight:Normal; font-size: 12px; text-anchor: start; font-family: sans-serif; fill: #333333;" class="" y="1507" x="6499"/><text style="font-weight:Normal; font-size: 12px; text-anchor: middle; font-family: sans-serif; fill: #333333;" class="" y="1492" x="6502"/></g><g transform="translate(0,0)"><path style="fill:none;stroke:#333333;stroke-width:2;stroke-dasharray:4,3;;" d="M5410,1506 C5934.5,1506 5934.5,1507  6459,1507"/><text style="font-weight:Normal; font-size: 12px; text-anchor: middle; font-family: sans-serif; fill: #333333;" class="" y="1492" x="6443"/><text style="font-weight:Normal; font-size: 12px; text-anchor: start; font-family: sans-serif; fill: #333333;" class="" y="1506" x="5934"/><text style="font-weight:Normal; font-size: 12px; text-anchor: middle; font-family: sans-serif; fill: #333333;" class="" y="1491" x="5423"/></g><g transform="translate(0,0)"><g transform="matrix(1,0,0,1,5970,1593)"><path style="fill:none;stroke:#333333;stroke-width:3.0;;" d="m248.48672818513998,29.26881934366494c0,4.810975287874417 -10.736875291722951,8.710332960793401 -23.983888269324645,8.710332960793401l-200.44488293043534,0c-13.247012977601695,0 -23.983888269324645,-3.8993576729189847 -23.983888269324645,-8.710332960793401l0,-18.043706595790123c0,-4.810975287874417 10.736875291722951,-8.710332960793401 23.983888269324645,-8.710332960793401l203.87035046597455,-2.488593724047799c13.248360702533711,0 23.985235994256662,5.143889067438901 23.985235994256662,9.954864355313317l-3.426860184635642,19.287748531187916z"/></g><text style="font-weight:bold; font-size: 12px; text-anchor: middle; font-family: arial,helvetica,sans-serif; fill: #333333;" class="svg-txt-center" y="1616" x="6096">/updateMetadata/saveDraftMetadatas</text></g><g transform="translate(0,0)"><g transform="matrix(1,0,0,1,5956,1665)"><path style="fill:none;stroke:#333333;stroke-width:3.0;;" d="m249.4727866303191,29.26881934366494c0,4.810975287874417 -10.779481939705978,8.710332960793401 -24.07906242912355,8.710332960793401l-201.2402991325402,0c-13.299580489417572,0 -24.07906242912355,-3.8993576729189847 -24.07906242912355,-8.710332960793401l0,-18.043706595790123c0,-4.810975287874417 10.779481939705978,-8.710332960793401 24.07906242912355,-8.710332960793401l204.67935979322047,-2.488593724047799c13.3009335624644,0 24.080415502170375,5.143889067438901 24.080415502170375,9.954864355313317l-3.4404588361619735,19.287748531187916z"/></g><text style="font-weight:bold; font-size: 12px; text-anchor: middle; font-family: arial,helvetica,sans-serif; fill: #333333;" class="svg-txt-center" y="1688" x="6082">/updateMetadata/sentApproveSecond</text></g><g transform="translate(0,0)"><g transform="matrix(1,0,0,1,5907,1600)"><path style="fill:none;stroke:#333333;stroke-width:3.0;;" d="m2.782678524884328,3.9921504081082064c5.145712268976438,-7.321759950172042 21.374237077972854,-4.308667201704669 22.166773888819417,6.888925053519851c0.7910019269854806,11.19716194074127 -7.91651663098454,17.22753788109624 -17.02106161984298,12.489386088358973c-9.103010104997356,-4.734801487117676 -9.707217607735664,-12.886679057811275 -5.145712268976438,-19.378311141878825z"/></g></g><g transform="translate(0,0)"><path style="fill:none;stroke:#333333;stroke-width:2;stroke-dasharray:4,3;;" d="M5934,1612 C5951,1612 5951,1612  5968,1612"/><text style="font-weight:Normal; font-size: 12px; text-anchor: middle; font-family: sans-serif; fill: #333333;" class="" y="1597" x="5952"/><text style="font-weight:Normal; font-size: 12px; text-anchor: start; font-family: sans-serif; fill: #333333;" class="" y="1612" x="5951"/><text style="font-weight:Normal; font-size: 12px; text-anchor: middle; font-family: sans-serif; fill: #333333;" class="" y="1597" x="5948"/></g><g transform="translate(0,0)"><path style="fill:none;stroke:#333333;stroke-width:2;stroke-dasharray:4,3;;" d="M5416,1605 C5660.5,1605 5660.5,1612  5905,1612"/><text style="font-weight:Normal; font-size: 12px; text-anchor: middle; font-family: sans-serif; fill: #333333;" class="" y="1597" x="5889"/><text style="font-weight:Normal; font-size: 12px; text-anchor: start; font-family: sans-serif; fill: #333333;" class="" y="1608" x="5660"/><text style="font-weight:Normal; font-size: 12px; text-anchor: middle; font-family: sans-serif; fill: #333333;" class="" y="1590" x="5429"/></g><g transform="translate(0,0)"><g transform="matrix(1,0,0,1,5274,1671)"><path style="fill:none;stroke:#333333;stroke-width:3.0;;" d="m128.1875978732865,29.26881934366494c0,4.810975287874417 -5.538864237793585,8.710332960793401 -12.37264077385795,8.710332960793401l-103.40410627363727,0c-6.833776536064366,0 -12.37264077385795,-3.8993576729189847 -12.37264077385795,-8.710332960793401l0,-18.043706595790123c0,-4.810975287874417 5.538864237793585,-8.710332960793401 12.37264077385795,-8.710332960793401l105.171212541971,-2.488593724047799c6.834471790989612,0 12.373336028783198,5.143889067438901 12.373336028783198,9.954864355313317l-1.7678246984231483,19.287748531187916z"/></g><text style="font-weight:bold; font-size: 12px; text-anchor: middle; font-family: arial,helvetica,sans-serif; fill: #333333;" class="svg-txt-center" y="1694" x="5339">sendApprove()</text></g><g transform="translate(0,0)"><path style="fill:none;stroke:#333333;stroke-width:2;stroke-dasharray:4,3;;" d="M5150,1498 C5150,1594 5211,1690  5272,1690"/><text style="font-weight:Normal; font-size: 12px; text-anchor: middle; font-family: sans-serif; fill: #333333;" class="" y="1668" x="5275"/><text style="font-weight:Normal; font-size: 12px; text-anchor: start; font-family: sans-serif; fill: #333333;" class="" y="1630" x="5188"/><text style="font-weight:Normal; font-size: 12px; text-anchor: middle; font-family: sans-serif; fill: #333333;" class="" y="1500" x="5169"/></g><g transform="translate(0,0)"><g transform="matrix(1,0,0,1,5907,1672)"><path style="fill:none;stroke:#333333;stroke-width:3.0;;" d="m2.782678524884328,3.9921504081082064c5.145712268976438,-7.321759950172042 21.374237077972854,-4.308667201704669 22.166773888819417,6.888925053519851c0.7910019269854806,11.19716194074127 -7.91651663098454,17.22753788109624 -17.02106161984298,12.489386088358973c-9.103010104997356,-4.734801487117676 -9.707217607735664,-12.886679057811275 -5.145712268976438,-19.378311141878825z"/></g></g><g transform="translate(0,0)"><path style="fill:none;stroke:#333333;stroke-width:2;stroke-dasharray:4,3;;" d="M5934,1684 C5944,1684 5944,1684  5954,1684"/><text style="font-weight:Normal; font-size: 12px; text-anchor: middle; font-family: sans-serif; fill: #333333;" class="" y="1669" x="5938"/><text style="font-weight:Normal; font-size: 12px; text-anchor: start; font-family: sans-serif; fill: #333333;" class="" y="1684" x="5944"/><text style="font-weight:Normal; font-size: 12px; text-anchor: middle; font-family: sans-serif; fill: #333333;" class="" y="1669" x="5948"/></g><g transform="translate(0,0)"><path style="fill:none;stroke:#333333;stroke-width:2;stroke-dasharray:4,3;;" d="M5406,1690 C5655.5,1690 5655.5,1684  5905,1684"/><text style="font-weight:Normal; font-size: 12px; text-anchor: middle; font-family: sans-serif; fill: #333333;" class="" y="1670" x="5889"/><text style="font-weight:Normal; font-size: 12px; text-anchor: start; font-family: sans-serif; fill: #333333;" class="" y="1687" x="5655"/><text style="font-weight:Normal; font-size: 12px; text-anchor: middle; font-family: sans-serif; fill: #333333;" class="" y="1675" x="5418"/></g><g transform="translate(0,0)"><g transform="matrix(1,0,0,1,5274,1736)"><path style="fill:none;stroke:#333333;stroke-width:3.0;;" d="m165.65781879009333,29.26881934366494c0,4.810975287874417 -7.157916861148634,8.710332960793401 -15.98925884621643,8.710332960793401l-133.62992195362355,0c-8.831341985067796,0 -15.98925884621643,-3.8993576729189847 -15.98925884621643,-8.710332960793401l0,-18.043706595790123c0,-4.810975287874417 7.157916861148634,-8.710332960793401 15.98925884621643,-8.710332960793401l135.91356697731638,-2.488593724047799c8.832240468355808,0 15.990157329504441,5.143889067438901 15.990157329504441,9.954864355313317l-2.284573456423761,19.287748531187916z"/></g><text style="font-weight:bold; font-size: 12px; text-anchor: middle; font-family: arial,helvetica,sans-serif; fill: #333333;" class="svg-txt-center" y="1759" x="5358">editMetaBtn.omClick()</text></g><g transform="translate(0,0)"><g transform="matrix(1,0,0,1,717,767)"><path style="fill:none;stroke:#333333;stroke-width:3.0;;fill: none;" d="m2.83775447254781,2.1683168316831685l196.5893645897594,-1.9299207920792079l0.3848251696483652,199.51366336633663l-199.66776064157926,-0.7720633663366336z"/><path style="fill:none;stroke:#333333;stroke-width:3.0;;fill: none;" d="m2.83775447254781,2.1683168316831685l196.2044170265268,-2.3159524752475247l0.7696384947563232,26.634059405940594l-197.74381246144355,0z"/><path style="fill:none;stroke:#333333;stroke-width:3.0;;fill: none;" d="m43.26751388032079,10.326732673267326l146.6535718692165,-0.38627326732673267l-0.3848093769278223,9.026930693069307l-147.0385194324491,-1.1578534653465347z"/><path style="fill:none;stroke:#333333;stroke-width:3.0;;fill: none;" d="m11.1489105490438,9.772277227722771l-3.5840355336212215,4.0938217821782175l4.353658235657002,3.5484990099009903"/><path style="fill:none;stroke:#333333;stroke-width:3.0;;" d="m8.109088217149907,13.87659405940594l6.722882171499075,-0.965009900990099"/><path style="fill:none;stroke:#333333;stroke-width:3.0;;fill: none;" d="m19.542820481184457,9.772277227722771l4.353658235657002,4.0938217821782175l-4.353658235657002,3.5484990099009903"/><path style="fill:none;stroke:#333333;stroke-width:3.0;;" d="m23.352261566933993,13.89108910891089l-6.722882171499075,-0.3860316831683168"/><path style="fill:none;stroke:#333333;stroke-width:3.0;;fill: none;" d="m36.51794201110425,16.18811881188119c-0.7234132017273288,0.7256554455445544 -1.7227962985811227,1.1747762376237623 -2.826679827267119,1.1747762376237623c-2.2077789019124,0 -3.9975323874151756,-1.795279207920792 -3.9975323874151756,-4.009940594059406c0,-2.2151524752475247 1.7897534855027761,-4.009940594059406 3.9975323874151756,-4.009940594059406c1.1038835286859963,0 2.3236737816162862,0.6698138613861386 3.0470869833436147,1.837338613861386"/><path style="fill:none;stroke:#333333;stroke-width:3.0;;" d="m36.93753090684763,12.284554455445546l-1.9265934608266502,-1.007259405940594l1.8329189389265885,-1.1700118811881188z"/></g><text style="font-weight:bold; font-size: 12px; text-anchor: middle; font-family: arial,helvetica,sans-serif; fill: #333333;" class="svg-txt-center" y="982" x="817">registerEmpty.html</text></g><g transform="translate(0,0)"><path style="fill:none;stroke:#333333;stroke-width:2;stroke-dasharray:4,3;;" d="M5150,1498 C5150,1626.5 5211,1755  5272,1755"/><text style="font-weight:Normal; font-size: 12px; text-anchor: middle; font-family: sans-serif; fill: #333333;" class="" y="1734" x="5278"/><text style="font-weight:Normal; font-size: 12px; text-anchor: start; font-family: sans-serif; fill: #333333;" class="" y="1674" x="5188"/><text style="font-weight:Normal; font-size: 12px; text-anchor: middle; font-family: sans-serif; fill: #333333;" class="" y="1503" x="5169"/></g><g transform="translate(0,0)"><g transform="matrix(1,0,0,1,1280,819)"><path style="fill:none;stroke:#333333;stroke-width:3.0;;fill: none;" d="m2.83775447254781,2.1683168316831685l196.5893645897594,-1.9299207920792079l0.3848251696483652,199.51366336633663l-199.66776064157926,-0.7720633663366336z"/><path style="fill:none;stroke:#333333;stroke-width:3.0;;fill: none;" d="m2.83775447254781,2.1683168316831685l196.2044170265268,-2.3159524752475247l0.7696384947563232,26.634059405940594l-197.74381246144355,0z"/><path style="fill:none;stroke:#333333;stroke-width:3.0;;fill: none;" d="m43.26751388032079,10.326732673267326l146.6535718692165,-0.38627326732673267l-0.3848093769278223,9.026930693069307l-147.0385194324491,-1.1578534653465347z"/><path style="fill:none;stroke:#333333;stroke-width:3.0;;fill: none;" d="m11.1489105490438,9.772277227722771l-3.5840355336212215,4.0938217821782175l4.353658235657002,3.5484990099009903"/><path style="fill:none;stroke:#333333;stroke-width:3.0;;" d="m8.109088217149907,13.87659405940594l6.722882171499075,-0.965009900990099"/><path style="fill:none;stroke:#333333;stroke-width:3.0;;fill: none;" d="m19.542820481184457,9.772277227722771l4.353658235657002,4.0938217821782175l-4.353658235657002,3.5484990099009903"/><path style="fill:none;stroke:#333333;stroke-width:3.0;;" d="m23.352261566933993,13.89108910891089l-6.722882171499075,-0.3860316831683168"/><path style="fill:none;stroke:#333333;stroke-width:3.0;;fill: none;" d="m36.51794201110425,16.18811881188119c-0.7234132017273288,0.7256554455445544 -1.7227962985811227,1.1747762376237623 -2.826679827267119,1.1747762376237623c-2.2077789019124,0 -3.9975323874151756,-1.795279207920792 -3.9975323874151756,-4.009940594059406c0,-2.2151524752475247 1.7897534855027761,-4.009940594059406 3.9975323874151756,-4.009940594059406c1.1038835286859963,0 2.3236737816162862,0.6698138613861386 3.0470869833436147,1.837338613861386"/><path style="fill:none;stroke:#333333;stroke-width:3.0;;" d="m36.93753090684763,12.284554455445546l-1.9265934608266502,-1.007259405940594l1.8329189389265885,-1.1700118811881188z"/></g></g><g transform="translate(0,0)"><path style="fill:none;stroke:#333333;stroke-width:2;;" d="M603,786 C658,786 658,867  713,867"/><polyline style="fill:#ffffff;stroke:#333333;stroke-width:2;fill-opacity:0;" points="694,875 713,867 696,855"/><text style="font-weight:Normal; font-size: 12px; text-anchor: middle; font-family: sans-serif; fill: #333333;" class="" y="845" x="710"/><text style="font-weight:Normal; font-size: 12px; text-anchor: start; font-family: sans-serif; fill: #333333;" class="" y="826" x="658"/><text style="font-weight:Normal; font-size: 12px; text-anchor: middle; font-family: sans-serif; fill: #333333;" class="" y="781" x="622"/></g><g transform="translate(0,0)"><path style="fill:none;stroke:#333333;stroke-width:3.0;;stroke-linejoin: round;" d="m4576,280l1919,0l2,1496l-1921,0"/><path style="fill:none;stroke:#333333;stroke-width:3.0;;stroke-linejoin: round;" d="m4551,280l27,0l2,1496l-27,0z"/><text transform="matrix(0,-1,1,0,4270,5632)" style="font-weight:bold; font-size: 12px; text-anchor: start; font-family: arial,helvetica,sans-serif; fill: #333333;" class="" y="297" x="4561">เปลี่ยนแปลงคำค้น</text></g><g transform="translate(0,0)"><g transform="matrix(1,0,0,1,4645,717)"><path style="fill:none;stroke:#333333;stroke-width:3.0;;" d="m0,0.11514356029532404l165.17176493955458,-0.69264807219032l1.4584502816263454,44.92259228876128l-165.82153090742955,-0.1383527481542248z"/><path style="fill:#333333;stroke:none;stroke-width:3.0;;stroke: none;" d="m63.248274,-6.1981l38.0093,-2.40741l-0.603966,2.40741l3.76254,0.531494l-2.13063,2.4458l-1.31318,1.85211l3.61304,0l-2.87453,2.84827l2.21614,2.70691l-40.9795,2.25l0.300789,-2.40662l-2.71546,-0.902466l3.31823,-1.50378l-3.85104,-3.49121l3.36488,-1.28223l-2.0523,-1.42377l1.93569,-1.62451z"/></g><text style="font-weight:Normal; font-size: 12px; text-anchor: start; font-family: arial,helvetica,sans-serif; fill: #333333;" class="" y="743" x="4660"><tspan x="4660">สร้างใบเปลี่ยนแปลงคำค้น</tspan></text></g><g transform="translate(0,0)"><g transform="matrix(1,0,0,1,4881,639)"><path style="fill:none;stroke:#333333;stroke-width:3.0;;fill: none;" d="m2.83775447254781,2.1683168316831685l196.5893645897594,-1.9299207920792079l0.3848251696483652,199.51366336633663l-199.66776064157926,-0.7720633663366336z"/><path style="fill:none;stroke:#333333;stroke-width:3.0;;fill: none;" d="m2.83775447254781,2.1683168316831685l196.2044170265268,-2.3159524752475247l0.7696384947563232,26.634059405940594l-197.74381246144355,0z"/><path style="fill:none;stroke:#333333;stroke-width:3.0;;fill: none;" d="m43.26751388032079,10.326732673267326l146.6535718692165,-0.38627326732673267l-0.3848093769278223,9.026930693069307l-147.0385194324491,-1.1578534653465347z"/><path style="fill:none;stroke:#333333;stroke-width:3.0;;fill: none;" d="m11.1489105490438,9.772277227722771l-3.5840355336212215,4.0938217821782175l4.353658235657002,3.5484990099009903"/><path style="fill:none;stroke:#333333;stroke-width:3.0;;" d="m8.109088217149907,13.87659405940594l6.722882171499075,-0.965009900990099"/><path style="fill:none;stroke:#333333;stroke-width:3.0;;fill: none;" d="m19.542820481184457,9.772277227722771l4.353658235657002,4.0938217821782175l-4.353658235657002,3.5484990099009903"/><path style="fill:none;stroke:#333333;stroke-width:3.0;;" d="m23.352261566933993,13.89108910891089l-6.722882171499075,-0.3860316831683168"/><path style="fill:none;stroke:#333333;stroke-width:3.0;;fill: none;" d="m36.51794201110425,16.18811881188119c-0.7234132017273288,0.7256554455445544 -1.7227962985811227,1.1747762376237623 -2.826679827267119,1.1747762376237623c-2.2077789019124,0 -3.9975323874151756,-1.795279207920792 -3.9975323874151756,-4.009940594059406c0,-2.2151524752475247 1.7897534855027761,-4.009940594059406 3.9975323874151756,-4.009940594059406c1.1038835286859963,0 2.3236737816162862,0.6698138613861386 3.0470869833436147,1.837338613861386"/><path style="fill:none;stroke:#333333;stroke-width:3.0;;" d="m36.93753090684763,12.284554455445546l-1.9265934608266502,-1.007259405940594l1.8329189389265885,-1.1700118811881188z"/></g><text style="font-weight:bold; font-size: 12px; text-anchor: middle; font-family: arial,helvetica,sans-serif; fill: #333333;" class="svg-txt-center" y="854" x="4981">requestUpdateMetadata.html</text></g><g transform="translate(0,0)"><path style="fill:none;stroke:#333333;stroke-width:2;stroke-dasharray:4,3;;" d="M4812,739 C4845.5,739 4845.5,739  4879,739"/><text style="font-weight:Normal; font-size: 12px; text-anchor: middle; font-family: sans-serif; fill: #333333;" class="" y="724" x="4863"/><text style="font-weight:Normal; font-size: 12px; text-anchor: start; font-family: sans-serif; fill: #333333;" class="" y="739" x="4845"/><text style="font-weight:Normal; font-size: 12px; text-anchor: middle; font-family: sans-serif; fill: #333333;" class="" y="724" x="4826"/></g><g transform="translate(0,0)"><g transform="matrix(1,0,0,1,4645,1053)"><path style="fill:none;stroke:#333333;stroke-width:3.0;;" d="m0,0.11776045939294504l165.17176493955458,-0.7083900738310092l1.4584502816263454,45.94356029532404l-165.82153090742955,-0.14149712879409354z"/><path style="fill:#333333;stroke:none;stroke-width:3.0;;stroke: none;" d="m63.248274,-6.1981l38.0093,-2.40741l-0.603966,2.40741l3.76254,0.531494l-2.13063,2.4458l-1.31318,1.85211l3.61304,0l-2.87453,2.84827l2.21614,2.70691l-40.9795,2.25l0.300789,-2.40662l-2.71546,-0.902466l3.31823,-1.50378l-3.85104,-3.49121l3.36488,-1.28223l-2.0523,-1.42377l1.93569,-1.62451z"/></g><text style="font-weight:Normal; font-size: 12px; text-anchor: start; font-family: arial,helvetica,sans-serif; fill: #333333;" class="" y="1079" x="4660"><tspan x="4660">สร้างใบเปลี่ยนแปลงคำค้น</tspan></text></g><g transform="translate(0,0)"><g transform="matrix(1,0,0,1,4870,975)"><path style="fill:none;stroke:#333333;stroke-width:3.0;;fill: none;" d="m2.83775447254781,2.1683168316831685l196.5893645897594,-1.9299207920792079l0.3848251696483652,199.51366336633663l-199.66776064157926,-0.7720633663366336z"/><path style="fill:none;stroke:#333333;stroke-width:3.0;;fill: none;" d="m2.83775447254781,2.1683168316831685l196.2044170265268,-2.3159524752475247l0.7696384947563232,26.634059405940594l-197.74381246144355,0z"/><path style="fill:none;stroke:#333333;stroke-width:3.0;;fill: none;" d="m43.26751388032079,10.326732673267326l146.6535718692165,-0.38627326732673267l-0.3848093769278223,9.026930693069307l-147.0385194324491,-1.1578534653465347z"/><path style="fill:none;stroke:#333333;stroke-width:3.0;;fill: none;" d="m11.1489105490438,9.772277227722771l-3.5840355336212215,4.0938217821782175l4.353658235657002,3.5484990099009903"/><path style="fill:none;stroke:#333333;stroke-width:3.0;;" d="m8.109088217149907,13.87659405940594l6.722882171499075,-0.965009900990099"/><path style="fill:none;stroke:#333333;stroke-width:3.0;;fill: none;" d="m19.542820481184457,9.772277227722771l4.353658235657002,4.0938217821782175l-4.353658235657002,3.5484990099009903"/><path style="fill:none;stroke:#333333;stroke-width:3.0;;" d="m23.352261566933993,13.89108910891089l-6.722882171499075,-0.3860316831683168"/><path style="fill:none;stroke:#333333;stroke-width:3.0;;fill: none;" d="m36.51794201110425,16.18811881188119c-0.7234132017273288,0.7256554455445544 -1.7227962985811227,1.1747762376237623 -2.826679827267119,1.1747762376237623c-2.2077789019124,0 -3.9975323874151756,-1.795279207920792 -3.9975323874151756,-4.009940594059406c0,-2.2151524752475247 1.7897534855027761,-4.009940594059406 3.9975323874151756,-4.009940594059406c1.1038835286859963,0 2.3236737816162862,0.6698138613861386 3.0470869833436147,1.837338613861386"/><path style="fill:none;stroke:#333333;stroke-width:3.0;;" d="m36.93753090684763,12.284554455445546l-1.9265934608266502,-1.007259405940594l1.8329189389265885,-1.1700118811881188z"/></g><text style="font-weight:bold; font-size: 12px; text-anchor: middle; font-family: arial,helvetica,sans-serif; fill: #333333;" class="svg-txt-center" y="1190" x="4970">apv1UpdateMetadata.html</text></g><g transform="translate(0,0)"><path style="fill:none;stroke:#333333;stroke-width:2;stroke-dasharray:4,3;;" d="M4812,1075 C4840,1075 4840,1075  4868,1075"/><text style="font-weight:Normal; font-size: 12px; text-anchor: middle; font-family: sans-serif; fill: #333333;" class="" y="1060" x="4852"/><text style="font-weight:Normal; font-size: 12px; text-anchor: start; font-family: sans-serif; fill: #333333;" class="" y="1075" x="4840"/><text style="font-weight:Normal; font-size: 12px; text-anchor: middle; font-family: sans-serif; fill: #333333;" class="" y="1060" x="4826"/></g><g transform="translate(0,0)"><g transform="matrix(1,0,0,1,4860,1393)"><path style="fill:none;stroke:#333333;stroke-width:3.0;;fill: none;" d="m2.83775447254781,2.1683168316831685l196.5893645897594,-1.9299207920792079l0.3848251696483652,199.51366336633663l-199.66776064157926,-0.7720633663366336z"/><path style="fill:none;stroke:#333333;stroke-width:3.0;;fill: none;" d="m2.83775447254781,2.1683168316831685l196.2044170265268,-2.3159524752475247l0.7696384947563232,26.634059405940594l-197.74381246144355,0z"/><path style="fill:none;stroke:#333333;stroke-width:3.0;;fill: none;" d="m43.26751388032079,10.326732673267326l146.6535718692165,-0.38627326732673267l-0.3848093769278223,9.026930693069307l-147.0385194324491,-1.1578534653465347z"/><path style="fill:none;stroke:#333333;stroke-width:3.0;;fill: none;" d="m11.1489105490438,9.772277227722771l-3.5840355336212215,4.0938217821782175l4.353658235657002,3.5484990099009903"/><path style="fill:none;stroke:#333333;stroke-width:3.0;;" d="m8.109088217149907,13.87659405940594l6.722882171499075,-0.965009900990099"/><path style="fill:none;stroke:#333333;stroke-width:3.0;;fill: none;" d="m19.542820481184457,9.772277227722771l4.353658235657002,4.0938217821782175l-4.353658235657002,3.5484990099009903"/><path style="fill:none;stroke:#333333;stroke-width:3.0;;" d="m23.352261566933993,13.89108910891089l-6.722882171499075,-0.3860316831683168"/><path style="fill:none;stroke:#333333;stroke-width:3.0;;fill: none;" d="m36.51794201110425,16.18811881188119c-0.7234132017273288,0.7256554455445544 -1.7227962985811227,1.1747762376237623 -2.826679827267119,1.1747762376237623c-2.2077789019124,0 -3.9975323874151756,-1.795279207920792 -3.9975323874151756,-4.009940594059406c0,-2.2151524752475247 1.7897534855027761,-4.009940594059406 3.9975323874151756,-4.009940594059406c1.1038835286859963,0 2.3236737816162862,0.6698138613861386 3.0470869833436147,1.837338613861386"/><path style="fill:none;stroke:#333333;stroke-width:3.0;;" d="m36.93753090684763,12.284554455445546l-1.9265934608266502,-1.007259405940594l1.8329189389265885,-1.1700118811881188z"/></g><text style="font-weight:bold; font-size: 12px; text-anchor: middle; font-family: arial,helvetica,sans-serif; fill: #333333;" class="svg-txt-center" y="1608" x="4960">updateMetadata.html</text></g><g transform="translate(0,0)"><g transform="matrix(1,0,0,1,5307,424)"><path style="fill:none;stroke:#333333;stroke-width:3.0;;" d="m108.46642896970397,29.26881934366494c0,4.810975287874417 -4.686731278133034,8.710332960793401 -10.469157577879805,8.710332960793401l-87.49578223153922,0c-5.7824262997467715,0 -10.469157577879805,-3.8993576729189847 -10.469157577879805,-8.710332960793401l0,-18.043706595790123c0,-4.810975287874417 4.686731278133034,-8.710332960793401 10.469157577879805,-8.710332960793401l88.99102599705239,-2.488593724047799c5.783014592375826,0 10.46974587050886,5.143889067438901 10.46974587050886,9.954864355313317l-1.4958516678965101,19.287748531187916z"/></g><text style="font-weight:bold; font-size: 12px; text-anchor: middle; font-family: arial,helvetica,sans-serif; fill: #333333;" class="svg-txt-center" y="447" x="5362">saveDraft()</text></g><g transform="translate(0,0)"><g transform="matrix(1,0,0,1,5315,529)"><path style="fill:none;stroke:#333333;stroke-width:3.0;;" d="m143.9645329961525,29.26881934366494c0,4.810975287874417 -6.220570605522027,8.710332960793401 -13.895427330640468,8.710332960793401l-116.1307655073157,0c-7.674856725118442,0 -13.895427330640468,-3.8993576729189847 -13.895427330640468,-8.710332960793401l0,-18.043706595790123c0,-4.810975287874417 6.220570605522027,-8.710332960793401 13.895427330640468,-8.710332960793401l118.11536177790589,-2.488593724047799c7.6756375498806415,0 13.896208155402668,5.143889067438901 13.896208155402668,9.954864355313317l-1.9854031228444589,19.287748531187916z"/></g><text style="font-weight:bold; font-size: 12px; text-anchor: middle; font-family: arial,helvetica,sans-serif; fill: #333333;" class="svg-txt-center" y="552" x="5388">refreshDocTable()</text></g><g transform="translate(0,0)"><g transform="matrix(1,0,0,1,5312,476)"><path style="fill:none;stroke:#333333;stroke-width:3.0;;" d="m127.20153942810737,29.26881934366494c0,4.810975287874417 -5.496257589810558,8.710332960793401 -12.277466614059044,8.710332960793401l-102.60869007153237,0c-6.781209024248486,0 -12.277466614059044,-3.8993576729189847 -12.277466614059044,-8.710332960793401l0,-18.043706595790123c0,-4.810975287874417 5.496257589810558,-8.710332960793401 12.277466614059044,-8.710332960793401l104.36220321472507,-2.488593724047799c6.781898931058923,0 12.27815652086948,5.143889067438901 12.27815652086948,9.954864355313317l-1.7542260468968165,19.287748531187916z"/></g><text style="font-weight:bold; font-size: 12px; text-anchor: middle; font-family: arial,helvetica,sans-serif; fill: #333333;" class="svg-txt-center" y="499" x="5376">sendApprove()</text></g><g transform="translate(0,0)"><g transform="matrix(1,0,0,1,5311,371)"><path style="fill:none;stroke:#333333;stroke-width:3.0;;" d="m64.09379893664325,29.26881934366494c0,4.810975287874417 -2.7694321188967925,8.710332960793401 -6.186320386928975,8.710332960793401l-51.702053136818634,0c-3.416888268032183,0 -6.186320386928975,-3.8993576729189847 -6.186320386928975,-8.710332960793401l0,-18.043706595790123c0,-4.810975287874417 2.7694321188967925,-8.710332960793401 6.186320386928975,-8.710332960793401l52.5856062709855,-2.488593724047799c3.417235895494806,0 6.186668014391599,5.143889067438901 6.186668014391599,9.954864355313317l-0.8839123492115741,19.287748531187916z"/></g><text style="font-weight:bold; font-size: 12px; text-anchor: middle; font-family: arial,helvetica,sans-serif; fill: #333333;" class="svg-txt-center" y="394" x="5343">init</text></g><g transform="translate(0,0)"><g transform="matrix(1,0,0,1,5140,726)"><path style="fill:none;stroke:#333333;stroke-width:3.0;;" d="m2.782678524884328,3.9921504081082064c5.145712268976438,-7.321759950172042 21.374237077972854,-4.308667201704669 22.166773888819417,6.888925053519851c0.7910019269854806,11.19716194074127 -7.91651663098454,17.22753788109624 -17.02106161984298,12.489386088358973c-9.103010104997356,-4.734801487117676 -9.707217607735664,-12.886679057811275 -5.145712268976438,-19.378311141878825z"/></g></g><g transform="translate(0,0)"><path style="fill:none;stroke:#333333;stroke-width:3.0;;stroke-linejoin: round;" d="m412,266l3736,0l2,3733l-3738,0"/><path style="fill:none;stroke:#333333;stroke-width:3.0;;stroke-linejoin: round;" d="m387,266l27,0l2,3733l-27,0z"/><text transform="matrix(0,-1,1,0,119.99999999999989,2543)" style="font-weight:bold; font-size: 12px; text-anchor: start; font-family: arial,helvetica,sans-serif; fill: #333333;" class="" y="283" x="397">นำฝาก</text></g><g transform="translate(0,0)"><path style="fill:none;stroke:#333333;stroke-width:2;stroke-dasharray:4,3;;" d="M5083,739 C5110.5,739 5110.5,738  5138,738"/><text style="font-weight:Normal; font-size: 12px; text-anchor: middle; font-family: sans-serif; fill: #333333;" class="" y="724" x="5122"/><text style="font-weight:Normal; font-size: 12px; text-anchor: start; font-family: sans-serif; fill: #333333;" class="" y="738" x="5110"/><text style="font-weight:Normal; font-size: 12px; text-anchor: middle; font-family: sans-serif; fill: #333333;" class="" y="724" x="5095"/></g><g transform="translate(0,0)"><path style="fill:none;stroke:#333333;stroke-width:2;stroke-dasharray:4,3;;" d="M5167,738 C5236,738 5236,443  5305,443"/><text style="font-weight:Normal; font-size: 12px; text-anchor: middle; font-family: sans-serif; fill: #333333;" class="" y="451" x="5285"/><text style="font-weight:Normal; font-size: 12px; text-anchor: start; font-family: sans-serif; fill: #333333;" class="" y="590" x="5236"/><text style="font-weight:Normal; font-size: 12px; text-anchor: middle; font-family: sans-serif; fill: #333333;" class="" y="719" x="5158"/></g><g transform="translate(0,0)"><path style="fill:none;stroke:#333333;stroke-width:2;stroke-dasharray:4,3;;" d="M5167,736 C5238.5,736 5238.5,495  5310,495"/><text style="font-weight:Normal; font-size: 12px; text-anchor: middle; font-family: sans-serif; fill: #333333;" class="" y="501" x="5289"/><text style="font-weight:Normal; font-size: 12px; text-anchor: start; font-family: sans-serif; fill: #333333;" class="" y="615" x="5238"/><text style="font-weight:Normal; font-size: 12px; text-anchor: middle; font-family: sans-serif; fill: #333333;" class="" y="716" x="5161"/></g><g transform="translate(0,0)"><g transform="matrix(1,0,0,1,5314,588)"><path style="fill:none;stroke:#333333;stroke-width:3.0;;" d="m132.131831654003,29.26881934366494c0,4.810975287874417 -5.709290829725696,8.710332960793401 -12.75333741305358,8.710332960793401l-106.58577108205688,0c-7.044046583327885,0 -12.75333741305358,-3.8993576729189847 -12.75333741305358,-8.710332960793401l0,-18.043706595790123c0,-4.810975287874417 5.709290829725696,-8.710332960793401 12.75333741305358,-8.710332960793401l108.40724985095473,-2.488593724047799c7.04476323071237,0 12.754054060438067,5.143889067438901 12.754054060438067,9.954864355313317l-1.8222193045284762,19.287748531187916z"/></g><text style="font-weight:bold; font-size: 12px; text-anchor: middle; font-family: arial,helvetica,sans-serif; fill: #333333;" class="svg-txt-center" y="611" x="5381">delCancleReq()</text></g><g transform="translate(0,0)"><g transform="matrix(1,0,0,1,5317,701)"><path style="fill:none;stroke:#333333;stroke-width:3.0;;" d="m176.50446168706372,29.26881934366494c0,4.810975287874417 -7.626589988961937,8.710332960793401 -17.03617460400441,8.710332960793401l-142.37950017677747,0c-9.409584615042473,0 -17.03617460400441,-3.8993576729189847 -17.03617460400441,-8.710332960793401l0,-18.043706595790123c0,-4.810975287874417 7.626589988961937,-8.710332960793401 17.03617460400441,-8.710332960793401l144.8126695770216,-2.488593724047799c9.410541927593389,0 17.037131916555328,5.143889067438901 17.037131916555328,9.954864355313317l-2.434158623213412,19.287748531187916z"/></g><text style="font-weight:bold; font-size: 12px; text-anchor: middle; font-family: arial,helvetica,sans-serif; fill: #333333;" class="svg-txt-center" y="724" x="5406">addDocumentInsertInit()</text></g><g transform="translate(0,0)"><g transform="matrix(1,0,0,1,5318,645)"><path style="fill:none;stroke:#333333;stroke-width:3.0;;" d="m188.33716302921323,29.26881934366494c0,4.810975287874417 -8.137869764758268,8.710332960793401 -18.1782645215913,8.710332960793401l-151.92449460203628,0c-10.04039475683303,0 -18.1782645215913,-3.8993576729189847 -18.1782645215913,-8.710332960793401l0,-18.043706595790123c0,-4.810975287874417 8.137869764758268,-8.710332960793401 18.1782645215913,-8.710332960793401l154.52078150397278,-2.488593724047799c10.041416246761662,0 18.179286011519928,5.143889067438901 18.179286011519928,9.954864355313317l-2.5973424415293946,19.287748531187916z"/></g><text style="font-weight:bold; font-size: 12px; text-anchor: middle; font-family: arial,helvetica,sans-serif; fill: #333333;" class="svg-txt-center" y="668" x="5413">removeDocumentByRow()</text></g><g transform="translate(0,0)"><g transform="matrix(1,0,0,1,438,296)"><path style="fill:none;stroke:#333333;stroke-width:3.0;;" d="m0,0.11514356029532404l118.12283795677237,-0.69264807219032l1.0430129286782348,44.92259228876128l-118.58751907319204,-0.1383527481542248z"/><path style="fill:#333333;stroke:none;stroke-width:3.0;;stroke: none;" d="m39.248274,-6.1981l38.0093,-2.40741l-0.603966,2.40741l3.76254,0.531494l-2.13063,2.4458l-1.31318,1.85211l3.61304,0l-2.87453,2.84827l2.21614,2.70691l-40.9795,2.25l0.300789,-2.40662l-2.71546,-0.902466l3.31823,-1.50378l-3.85104,-3.49121l3.36488,-1.28223l-2.0523,-1.42377l1.93569,-1.62451z"/></g><text style="font-weight:Normal; font-size: 12px; text-anchor: start; font-family: arial,helvetica,sans-serif; fill: #333333;" class="" y="322" x="453"><tspan x="453">นำฝากรายลูกค้า</tspan></text></g><g transform="translate(0,0)"><g transform="matrix(1,0,0,1,5785,417)"><path style="fill:none;stroke:#333333;stroke-width:3.0;;" d="m15.447922032215558,1.6551882475885311l256.7269476409899,-1.6393764616162425c20.611393670688443,-0.13162225735024488 23.75561117493367,3.1292335930507758 24.163909576007082,7.8325718738985435l3.079710621088694,35.48098377434879c0.5288626291961185,6.093029510477548 -3.5554368912688776,9.809741855430813 -20.373450581603365,9.65408306040035l-265.72976747666866,-2.4590646924243638c-7.347484305039696,-0.06799067968084124 -13.42225025732351,-2.2753561661356474 -13.266393269759716,-5.100264109734292l2.1321065330204294,-38.668669335138496c0.1557535803969419,-2.8249202389221066 5.917832250920844,-5.053336958520528 13.266393269759716,-5.100264109734292z"/></g><text style="font-weight:bold; font-size: 18px; text-anchor: middle; font-family: arial,helvetica,sans-serif; fill: #333333;" class="svg-txt-center" y="451" x="5934">/updateMetadata/saveDraft</text></g><g transform="translate(0,0)"><path style="fill:none;stroke:#333333;stroke-width:2;stroke-dasharray:4,3;;" d="M5419,443 C5600,443 5600,443  5781,443"/><path style="fill:rgb(250,250,250);stroke:#333333;stroke-width:2;;visibility: visible;" d="M5781,443 5763.679491924311,433 5763.679491924311,453Z"/><text style="font-weight:Normal; font-size: 12px; text-anchor: middle; font-family: sans-serif; fill: #333333;" class="" y="428" x="5767"/><text style="font-weight:Normal; font-size: 12px; text-anchor: start; font-family: sans-serif; fill: #333333;" class="" y="443" x="5600"/><text style="font-weight:Normal; font-size: 12px; text-anchor: middle; font-family: sans-serif; fill: #333333;" class="" y="428" x="5433"/></g><g transform="translate(0,0)"><g transform="matrix(1,0,0,1,5776,299)"><path style="fill:none;stroke:#333333;stroke-width:3.0;;" d="m23.766033895716244,1.6551882475885311l394.96453483229214,-1.6393764616162425c31.709836416443757,-0.13162225735024488 36.54709411528257,3.1292335930507758 37.175245501549355,7.8325718738985435l4.738016340136452,35.48098377434879c0.8136348141478744,6.093029510477548 -5.469902909644427,9.809741855430813 -31.343770125543635,9.65408306040035l-408.8150268871825,-2.4590646924243638c-11.303822007753379,-0.06799067968084124 -20.649615780497705,-2.2753561661356474 -20.40983579963033,-5.100264109734292l3.2801638969545066,-38.668669335138496c0.23962089291837216,-2.8249202389221066 9.10435730910899,-5.053336958520528 20.40983579963033,-5.100264109734292z"/></g><text style="font-weight:bold; font-size: 18px; text-anchor: middle; font-family: arial,helvetica,sans-serif; fill: #333333;" class="svg-txt-center" y="333" x="6006">/updateMetadata/getUpdateMetadataReqTypes</text></g><g transform="translate(0,0)"><g transform="matrix(1,0,0,1,5568,365)"><path style="fill:none;stroke:#333333;stroke-width:3.0;;" d="m2.782678524884328,3.9921504081082064c5.145712268976438,-7.321759950172042 21.374237077972854,-4.308667201704669 22.166773888819417,6.888925053519851c0.7910019269854806,11.19716194074127 -7.91651663098454,17.22753788109624 -17.02106161984298,12.489386088358973c-9.103010104997356,-4.734801487117676 -9.707217607735664,-12.886679057811275 -5.145712268976438,-19.378311141878825z"/></g></g><g transform="translate(0,0)"><path style="fill:none;stroke:#333333;stroke-width:2;stroke-dasharray:4,3;;" d="M5595,377 C5683.5,377 5683.5,325  5772,325"/><path style="fill:rgb(250,250,250);stroke:#333333;stroke-width:2;;visibility: visible;" d="M5772,325 5754.3889157928315,315.5210911467599 5754.985482029353,335.5121918849744Z"/><text style="font-weight:Normal; font-size: 12px; text-anchor: middle; font-family: sans-serif; fill: #333333;" class="" y="315" x="5754"/><text style="font-weight:Normal; font-size: 12px; text-anchor: start; font-family: sans-serif; fill: #333333;" class="" y="351" x="5683"/><text style="font-weight:Normal; font-size: 12px; text-anchor: middle; font-family: sans-serif; fill: #333333;" class="" y="359" x="5603"/></g><g transform="translate(0,0)"><path style="fill:none;stroke:#333333;stroke-width:2;stroke-dasharray:4,3;;" d="M5378,390 C5471,390 5471,377  5564,377"/><path style="fill:rgb(250,250,250);stroke:#333333;stroke-width:2;;visibility: visible;" d="M5564,377 5546.608936081984,367.1232142981897 5546.750920715489,387.1227103009356Z"/><text style="font-weight:Normal; font-size: 12px; text-anchor: middle; font-family: sans-serif; fill: #333333;" class="" y="364" x="5549"/><text style="font-weight:Normal; font-size: 12px; text-anchor: start; font-family: sans-serif; fill: #333333;" class="" y="383" x="5471"/><text style="font-weight:Normal; font-size: 12px; text-anchor: middle; font-family: sans-serif; fill: #333333;" class="" y="375" x="5389"/></g><g transform="translate(0,0)"><g transform="matrix(1,0,0,1,5780,358)"><path style="fill:none;stroke:#333333;stroke-width:3.0;;" d="m17.41120309316603,1.6551882475885311l289.35445269235316,-1.6393764616162425c23.230901896394666,-0.13162225735024488 26.774718949674405,3.1292335930507758 27.234908117439417,7.8325718738985435l3.471111970926053,35.48098377434879c0.5960759399300732,6.093029510477548 -4.007298435978634,9.809741855430813 -22.9627185484961,9.65408306040035l-299.5014436108272,-2.4590646924243638c-8.28127829698454,-0.06799067968084124 -15.128088082668972,-2.2753561661356474 -14.952423183642221,-5.100264109734292l2.403076594073193,-38.668669335138496c0.17554834981193787,-2.8249202389221066 6.669931332977673,-5.053336958520528 14.952423183642221,-5.100264109734292z"/></g><text style="font-weight:bold; font-size: 18px; text-anchor: middle; font-family: arial,helvetica,sans-serif; fill: #333333;" class="svg-txt-center" y="392" x="5948">updateMetadata/loadReqDetails</text></g><g transform="translate(0,0)"><g transform="matrix(1,0,0,1,442,585)"><path style="fill:none;stroke:#333333;stroke-width:3.0;;" d="m0,0.11514356029532404l118.12283795677237,-0.69264807219032l1.0430129286782348,44.92259228876128l-118.58751907319204,-0.1383527481542248z"/><path style="fill:#333333;stroke:none;stroke-width:3.0;;stroke: none;" d="m39.248274,-6.1981l38.0093,-2.40741l-0.603966,2.40741l3.76254,0.531494l-2.13063,2.4458l-1.31318,1.85211l3.61304,0l-2.87453,2.84827l2.21614,2.70691l-40.9795,2.25l0.300789,-2.40662l-2.71546,-0.902466l3.31823,-1.50378l-3.85104,-3.49121l3.36488,-1.28223l-2.0523,-1.42377l1.93569,-1.62451z"/></g><text style="font-weight:Normal; font-size: 12px; text-anchor: start; font-family: arial,helvetica,sans-serif; fill: #333333;" class="" y="611" x="457"><tspan x="457">นำฝากรายลูกค้า</tspan></text></g><g transform="translate(0,0)"><path style="fill:none;stroke:#333333;stroke-width:2;stroke-dasharray:4,3;;" d="M5595,377 C5685.5,377 5685.5,384  5776,384"/><path style="fill:rgb(250,250,250);stroke:#333333;stroke-width:2;;visibility: visible;" d="M5776,384 5758.718908871197,373.9320364820891 5758.640342264713,393.9318821637023Z"/><text style="font-weight:Normal; font-size: 12px; text-anchor: middle; font-family: sans-serif; fill: #333333;" class="" y="369" x="5762"/><text style="font-weight:Normal; font-size: 12px; text-anchor: start; font-family: sans-serif; fill: #333333;" class="" y="380" x="5685"/><text style="font-weight:Normal; font-size: 12px; text-anchor: middle; font-family: sans-serif; fill: #333333;" class="" y="362" x="5608"/></g><g transform="translate(0,0)"><g transform="matrix(1,0,0,1,5317,754)"><path style="fill:none;stroke:#333333;stroke-width:3.0;;" d="m190.3092799195715,29.26881934366494c0,4.810975287874417 -8.223083060724324,8.710332960793401 -18.368612841189112,8.710332960793401l-153.5153270062461,0c-10.14552978046479,0 -18.368612841189112,-3.8993576729189847 -18.368612841189112,-8.710332960793401l0,-18.043706595790123c0,-4.810975287874417 8.223083060724324,-8.710332960793401 18.368612841189112,-8.710332960793401l156.13880015846465,-2.488593724047799c10.14656196662304,0 18.369645027347364,5.143889067438901 18.369645027347364,9.954864355313317l-2.624539744582059,19.287748531187916z"/></g><text style="font-weight:bold; font-size: 12px; text-anchor: middle; font-family: arial,helvetica,sans-serif; fill: #333333;" class="svg-txt-center" y="777" x="5413">clickBtnSearchDocument()</text></g><g transform="translate(0,0)"><g transform="matrix(1,0,0,1,5316,805)"><path style="fill:none;stroke:#333333;stroke-width:3.0;;" d="m191.29533836475062,29.26881934366494c0,4.810975287874417 -8.26568970870735,8.710332960793401 -18.46378700098802,8.710332960793401l-154.310743208351,0c-10.19809729228067,0 -18.46378700098802,-3.8993576729189847 -18.46378700098802,-8.710332960793401l0,-18.043706595790123c0,-4.810975287874417 8.26568970870735,-8.710332960793401 18.46378700098802,-8.710332960793401l156.94780948571056,-2.488593724047799c10.19913482655373,0 18.46482453526108,5.143889067438901 18.46482453526108,9.954864355313317l-2.6381383961083906,19.287748531187916z"/></g><text style="font-weight:bold; font-size: 12px; text-anchor: middle; font-family: arial,helvetica,sans-serif; fill: #333333;" class="svg-txt-center" y="828" x="5413">viewDocInterface onClick()</text></g><g transform="translate(0,0)"><g transform="matrix(1,0,0,1,5796,738)"><path style="fill:none;stroke:#333333;stroke-width:3.0;;" d="m15.086264994672051,1.6551882475885311l250.71661776310722,-1.6393764616162425c20.12885268174256,-0.13162225735024488 23.19945974274459,3.1292335930507758 23.59819931837481,7.8325718738985435l3.007610372434444,35.48098377434879c0.5164812298503899,6.093029510477548 -3.4721992382960276,9.809741855430813 -19.896480166649443,9.65408306040035l-259.50866924142895,-2.4590646924243638c-7.175469622313016,-0.06799067968084124 -13.108016973707242,-2.2753561661356474 -12.955808811939255,-5.100264109734292l2.0821909954580784,-38.668669335138496c0.15210717550470582,-2.8249202389221066 5.779287683173534,-5.053336958520528 12.955808811939255,-5.100264109734292z"/></g><text style="font-weight:bold; font-size: 18px; text-anchor: middle; font-family: arial,helvetica,sans-serif; fill: #333333;" class="svg-txt-center" y="772" x="5942">/updateMetadata/addDocs</text></g><g transform="translate(0,0)"><g transform="matrix(1,0,0,1,5792,802)"><path style="fill:none;stroke:#333333;stroke-width:3.0;;" d="m20.201128811358807,1.6551882475885311l335.7198546074483,-1.6393764616162425c26.953360953977196,-0.13162225735024488 31.065029997990184,3.1292335930507758 31.598958676316954,7.8325718738985435l4.027313889115985,35.48098377434879c0.6915895920256934,6.093029510477548 -4.649417473197762,9.809741855430813 -26.64220460671209,9.65408306040035l-347.49277285410517,-2.4590646924243638c-9.608248706590372,-0.06799067968084124 -17.552173413423052,-2.2753561661356474 -17.348360429685783,-5.100264109734292l2.7881393124113307,-38.668669335138496c0.20367775898061635,-2.8249202389221066 7.738703712742642,-5.053336958520528 17.348360429685783,-5.100264109734292z"/></g><text style="font-weight:bold; font-size: 18px; text-anchor: middle; font-family: arial,helvetica,sans-serif; fill: #333333;" class="svg-txt-center" y="836" x="5987">/search/searchDocumentByDocSearch</text></g><g transform="translate(0,0)"><g transform="matrix(1,0,0,1,5780,859)"><path style="fill:none;stroke:#333333;stroke-width:3.0;;" d="m18.70283537010713,1.6551882475885311l310.8199165419343,-1.6393764616162425c24.954262571201394,-0.13162225735024488 28.760974064635416,3.1292335930507758 29.25530189469754,7.8325718738985435l3.7286128589769474,35.48098377434879c0.6402952233076752,6.093029510477548 -4.304575768024527,9.809741855430813 -24.66618431618869,9.65408306040035l-321.71965159382626,-2.4590646924243638c-8.895616449579833,-0.06799067968084124 -16.250349809869935,-2.2753561661356474 -16.06165339014387,-5.100264109734292l2.5813463710815903,-38.668669335138496c0.1885712244270668,-2.8249202389221066 7.164733360646641,-5.053336958520528 16.06165339014387,-5.100264109734292z"/></g><text style="font-weight:bold; font-size: 18px; text-anchor: middle; font-family: arial,helvetica,sans-serif; fill: #333333;" class="svg-txt-center" y="893" x="5961">/search/getAllDocumentInEnvelope</text></g><g transform="translate(0,0)"><g transform="matrix(1,0,0,1,6450,529)"><path style="fill:none;stroke:#333333;stroke-width:3.0;;" d="m16.37789727161315,1.6551882475885311l272.1820816126883,-1.6393764616162425c21.852213356549285,-0.13162225735024488 25.185714857705598,3.1292335930507758 25.618593095632928,7.8325718738985435l3.265111260485338,35.48098377434879c0.5607005132279917,6.093029510477548 -3.7694765703419204,9.809741855430813 -21.599945934342028,9.65408306040035l-281.726877224428,-2.4590646924243638c-7.789807774908307,-0.06799067968084124 -14.230278700908203,-2.2753561661356474 -14.065039018440903,-5.100264109734292l2.2604607724664754,-38.668669335138496c0.16513005011983473,-2.8249202389221066 6.2740897108425004,-5.053336958520528 14.065039018440903,-5.100264109734292z"/></g><text style="font-weight:bold; font-size: 18px; text-anchor: middle; font-family: arial,helvetica,sans-serif; fill: #333333;" class="svg-txt-center" y="563" x="6608">/updateMetadata/listReqDocs</text></g><g transform="translate(0,0)"><g transform="matrix(1,0,0,1,5788,667)"><path style="fill:none;stroke:#333333;stroke-width:3.0;;" d="m16.636223727001372,1.6551882475885311l276.4751743826045,-1.6393764616162425c22.19688549151063,-0.13162225735024488 25.582965880697802,3.1292335930507758 26.022671851084553,7.8325718738985435l3.3166114380955167,35.48098377434879c0.5695443699035122,6.093029510477548 -3.828932036751099,9.809741855430813 -21.940639087880548,9.65408306040035l-286.17051882102777,-2.4590646924243638c-7.912675405427366,-0.06799067968084124 -14.454731046348396,-2.2753561661356474 -14.286885059741232,-5.100264109734292l2.296114727868155,-38.668669335138496c0.16773462504286052,-2.8249202389221066 6.373050116376294,-5.053336958520528 14.286885059741232,-5.100264109734292z"/></g><text style="font-weight:bold; font-size: 18px; text-anchor: middle; font-family: arial,helvetica,sans-serif; fill: #333333;" class="svg-txt-center" y="701" x="5949">/updateMetadata/removeDocs</text></g><g transform="translate(0,0)"><path style="fill:none;stroke:#333333;stroke-width:2;stroke-dasharray:4,3;;" d="M5512,773 C5650,773 5650,828  5788,828"/><path style="fill:rgb(250,250,250);stroke:#333333;stroke-width:2;;visibility: visible;" d="M5788,828 5770.885413995172,817.6515244657327 5770.480664294469,837.6474284883014Z"/><text style="font-weight:Normal; font-size: 12px; text-anchor: middle; font-family: sans-serif; fill: #333333;" class="" y="810" x="5776"/><text style="font-weight:Normal; font-size: 12px; text-anchor: start; font-family: sans-serif; fill: #333333;" class="" y="800" x="5650"/><text style="font-weight:Normal; font-size: 12px; text-anchor: middle; font-family: sans-serif; fill: #333333;" class="" y="760" x="5527"/></g><g transform="translate(0,0)"><path style="fill:none;stroke:#333333;stroke-width:2;stroke-dasharray:4,3;;" d="M5512,824 C5644,824 5644,885  5776,885"/><path style="fill:rgb(250,250,250);stroke:#333333;stroke-width:2;;visibility: visible;" d="M5776,885 5758.918898405262,874.5963483184879 5758.449622554317,894.5908420649101Z"/><text style="font-weight:Normal; font-size: 12px; text-anchor: middle; font-family: sans-serif; fill: #333333;" class="" y="867" x="5765"/><text style="font-weight:Normal; font-size: 12px; text-anchor: start; font-family: sans-serif; fill: #333333;" class="" y="854" x="5644"/><text style="font-weight:Normal; font-size: 12px; text-anchor: middle; font-family: sans-serif; fill: #333333;" class="" y="812" x="5528"/></g><g transform="translate(0,0)"><g transform="matrix(1,0,0,1,5775,972)"><path style="fill:none;stroke:#333333;stroke-width:3.0;;" d="m14.517946792817966,1.6551882475885311l241.2718136692915,-1.6393764616162425c19.3705739848276,-0.13162225735024488 22.325507492161744,3.1292335930507758 22.709226056381237,7.8325718738985435l2.89430998169205,35.48098377434879c0.49702474516424505,6.093029510477548 -3.3413972121958344,9.809741855430813 -19.1469552288647,9.65408306040035l-249.73265772890934,-2.4590646924243638c-6.9051608351710865,-0.06799067968084124 -12.614221813738816,-2.2753561661356474 -12.467747521078529,-5.100264109734292l2.0037522935743834,-38.668669335138496c0.14637711067404907,-2.8249202389221066 5.561574790999187,-5.053336958520528 12.467747521078529,-5.100264109734292z"/></g><text style="font-weight:bold; font-size: 18px; text-anchor: middle; font-family: arial,helvetica,sans-serif; fill: #333333;" class="svg-txt-center" y="1006" x="5915">/userDetail/getUserDetail</text></g><g transform="translate(0,0)"><g transform="matrix(1,0,0,1,5787,604)"><path style="fill:none;stroke:#333333;stroke-width:3.0;;" d="m16.01624023406964,1.6551882475885311l266.1717517348055,-1.6393764616162425c21.3696723676034,-0.13162225735024488 24.629563425516512,3.1292335930507758 25.052882838000652,7.8325718738985435l3.193011011831087,35.48098377434879c0.5483191138822632,6.093029510477548 -3.68623891736907,9.809741855430813 -21.122975519388103,9.65408306040035l-275.50577898918823,-2.4590646924243638c-7.617793092181625,-0.06799067968084124 -13.916045417291931,-2.2753561661356474 -13.75445456062044,-5.100264109734292l2.210545234904124,-38.668669335138496c0.16148364522759862,-2.8249202389221066 6.135545143095189,-5.053336958520528 13.75445456062044,-5.100264109734292z"/></g><text style="font-weight:bold; font-size: 18px; text-anchor: middle; font-family: arial,helvetica,sans-serif; fill: #333333;" class="svg-txt-center" y="638" x="5942">/updateMetadata/deleteDraft</text></g><g transform="translate(0,0)"><g transform="matrix(1,0,0,1,6438,428)"><path style="fill:none;stroke:#333333;stroke-width:3.0;;" d="m18.496174205796557,1.6551882475885311l307.3854423260013,-1.6393764616162425c24.67852486323232,-0.13162225735024488 28.443173246241656,3.1292335930507758 28.93203889033624,7.8325718738985435l3.6874127168888045,35.48098377434879c0.633220137967259,6.093029510477548 -4.257011394897185,9.809741855430813 -24.393629793357878,9.65408306040035l-318.16473831654645,-2.4590646924243638c-8.797322345164588,-0.06799067968084124 -16.07078793351778,-2.2753561661356474 -15.884176557103608,-5.100264109734292l2.5528232067602468,-38.668669335138496c0.18648756448864617,-2.8249202389221066 7.085565036219606,-5.053336958520528 15.884176557103608,-5.100264109734292z"/></g><text style="font-weight:bold; font-size: 18px; text-anchor: middle; font-family: arial,helvetica,sans-serif; fill: #333333;" class="svg-txt-center" y="462" x="6617">/updateMetadata/sentApproveFirst</text></g><g transform="translate(0,0)"><path style="fill:none;stroke:#333333;stroke-width:2;stroke-dasharray:4,3;;" d="M5450,607 C5616.5,607 5616.5,630  5783,630"/><path style="fill:rgb(250,250,250);stroke:#333333;stroke-width:2;;visibility: visible;" d="M5783,630 5765.750074172315,619.8787323452358 5765.609762178629,639.8782401527902Z"/><text style="font-weight:Normal; font-size: 12px; text-anchor: middle; font-family: sans-serif; fill: #333333;" class="" y="614" x="5770"/><text style="font-weight:Normal; font-size: 12px; text-anchor: start; font-family: sans-serif; fill: #333333;" class="" y="618" x="5616"/><text style="font-weight:Normal; font-size: 12px; text-anchor: middle; font-family: sans-serif; fill: #333333;" class="" y="592" x="5464"/></g><g transform="translate(0,0)"><path style="fill:none;stroke:#333333;stroke-width:2;stroke-dasharray:4,3;;" d="M5511,664 C5647.5,664 5647.5,693  5784,693"/><path style="fill:rgb(250,250,250);stroke:#333333;stroke-width:2;;visibility: visible;" d="M5784,693 5766.7883952835655,682.8137021894497 5766.572604967332,702.8125380190529Z"/><text style="font-weight:Normal; font-size: 12px; text-anchor: middle; font-family: sans-serif; fill: #333333;" class="" y="677" x="5771"/><text style="font-weight:Normal; font-size: 12px; text-anchor: start; font-family: sans-serif; fill: #333333;" class="" y="678" x="5647"/><text style="font-weight:Normal; font-size: 12px; text-anchor: middle; font-family: sans-serif; fill: #333333;" class="" y="650" x="5525"/></g><g transform="translate(0,0)"><path style="fill:none;stroke:#333333;stroke-width:2;stroke-dasharray:4,3;;" d="M5498,720 C5645,720 5645,764  5792,764"/><path style="fill:rgb(250,250,250);stroke:#333333;stroke-width:2;;visibility: visible;" d="M5792,764 5774.833494150421,753.7378814606147 5774.529491723456,773.7355708902564Z"/><text style="font-weight:Normal; font-size: 12px; text-anchor: middle; font-family: sans-serif; fill: #333333;" class="" y="747" x="5780"/><text style="font-weight:Normal; font-size: 12px; text-anchor: start; font-family: sans-serif; fill: #333333;" class="" y="742" x="5645"/><text style="font-weight:Normal; font-size: 12px; text-anchor: middle; font-family: sans-serif; fill: #333333;" class="" y="707" x="5513"/></g><g transform="translate(0,0)"><g transform="matrix(1,0,0,1,709,301)"><path style="fill:none;stroke:#333333;stroke-width:3.0;;fill: none;" d="m2.553979025293029,1.9514851485148514l176.93042813078347,-1.7369287128712871l0.34634265268352865,179.562297029703l-179.70098457742134,-0.6948570297029704z"/><path style="fill:none;stroke:#333333;stroke-width:3.0;;fill: none;" d="m2.553979025293029,1.9514851485148514l176.58397532387414,-2.0843572277227724l0.6926746452806909,23.970653465346537l-177.96943121529918,0z"/><path style="fill:none;stroke:#333333;stroke-width:3.0;;fill: none;" d="m38.94076249228871,9.294059405940594l131.98821468229485,-0.3476459405940594l-0.3463284392350401,8.124237623762376l-132.33466748920418,-1.0420681188118812z"/><path style="fill:none;stroke:#333333;stroke-width:3.0;;fill: none;" d="m10.03401949413942,8.795049504950494l-3.225631980259099,3.684439603960396l3.9182924120913016,3.193649108910891"/><path style="fill:none;stroke:#333333;stroke-width:3.0;;" d="m7.298179395434916,12.488934653465346l6.050593954349167,-0.8685089108910891"/><path style="fill:none;stroke:#333333;stroke-width:3.0;;fill: none;" d="m17.58853843306601,8.795049504950494l3.9182924120913016,3.684439603960396l-3.9182924120913016,3.193649108910891"/><path style="fill:none;stroke:#333333;stroke-width:3.0;;" d="m21.01703541024059,12.501980198019801l-6.050593954349167,-0.3474285148514852"/><path style="fill:none;stroke:#333333;stroke-width:3.0;;fill: none;" d="m32.86614780999383,14.56930693069307c-0.6510718815545959,0.653089900990099 -1.5505166687230105,1.057298613861386 -2.544011844540407,1.057298613861386c-1.9870010117211598,0 -3.597779148673658,-1.615751287128713 -3.597779148673658,-3.6089465346534655c0,-1.9936372277227723 1.6107781369524985,-3.6089465346534655 3.597779148673658,-3.6089465346534655c0.9934951758173965,0 2.0913064034546576,0.6028324752475248 2.742378285009253,1.6536047524752475"/><path style="fill:none;stroke:#333333;stroke-width:3.0;;" d="m33.24377781616286,11.056099009900992l-1.733934114743985,-0.9065334653465346l1.6496270450339297,-1.053010693069307z"/></g><text style="font-weight:bold; font-size: 12px; text-anchor: middle; font-family: arial,helvetica,sans-serif; fill: #333333;" class="svg-txt-center" y="496" x="799">register.html</text></g><g transform="translate(0,0)"><path style="fill:none;stroke:#333333;stroke-width:2;stroke-dasharray:4,3;;" d="M5167,738 C5238,738 5238,390  5309,390"/><text style="font-weight:Normal; font-size: 12px; text-anchor: middle; font-family: sans-serif; fill: #333333;" class="" y="399" x="5289"/><text style="font-weight:Normal; font-size: 12px; text-anchor: start; font-family: sans-serif; fill: #333333;" class="" y="564" x="5238"/><text style="font-weight:Normal; font-size: 12px; text-anchor: middle; font-family: sans-serif; fill: #333333;" class="" y="720" x="5158"/></g><g transform="translate(0,0)"><path style="fill:none;stroke:#333333;stroke-width:2;stroke-dasharray:4,3;;" d="M5167,738 C5240,738 5240,548  5313,548"/><text style="font-weight:Normal; font-size: 12px; text-anchor: middle; font-family: sans-serif; fill: #333333;" class="" y="551" x="5292"/><text style="font-weight:Normal; font-size: 12px; text-anchor: start; font-family: sans-serif; fill: #333333;" class="" y="643" x="5240"/><text style="font-weight:Normal; font-size: 12px; text-anchor: middle; font-family: sans-serif; fill: #333333;" class="" y="717" x="5163"/></g><g transform="translate(0,0)"><path style="fill:none;stroke:#333333;stroke-width:2;stroke-dasharray:4,3;;" d="M5167,738 C5239.5,738 5239.5,607  5312,607"/><text style="font-weight:Normal; font-size: 12px; text-anchor: middle; font-family: sans-serif; fill: #333333;" class="" y="606" x="5290"/><text style="font-weight:Normal; font-size: 12px; text-anchor: start; font-family: sans-serif; fill: #333333;" class="" y="672" x="5239"/><text style="font-weight:Normal; font-size: 12px; text-anchor: middle; font-family: sans-serif; fill: #333333;" class="" y="717" x="5166"/></g><g transform="translate(0,0)"><path style="fill:none;stroke:#333333;stroke-width:2;stroke-dasharray:4,3;;" d="M5167,738 C5241.5,738 5241.5,664  5316,664"/><text style="font-weight:Normal; font-size: 12px; text-anchor: middle; font-family: sans-serif; fill: #333333;" class="" y="658" x="5295"/><text style="font-weight:Normal; font-size: 12px; text-anchor: start; font-family: sans-serif; fill: #333333;" class="" y="701" x="5241"/><text style="font-weight:Normal; font-size: 12px; text-anchor: middle; font-family: sans-serif; fill: #333333;" class="" y="718" x="5172"/></g><g transform="translate(0,0)"><path style="fill:none;stroke:#333333;stroke-width:2;stroke-dasharray:4,3;;" d="M5167,738 C5241,738 5241,720  5315,720"/><text style="font-weight:Normal; font-size: 12px; text-anchor: middle; font-family: sans-serif; fill: #333333;" class="" y="707" x="5298"/><text style="font-weight:Normal; font-size: 12px; text-anchor: start; font-family: sans-serif; fill: #333333;" class="" y="729" x="5241"/><text style="font-weight:Normal; font-size: 12px; text-anchor: middle; font-family: sans-serif; fill: #333333;" class="" y="722" x="5178"/></g><g transform="translate(0,0)"><path style="fill:none;stroke:#333333;stroke-width:2;;" d="M558,318 C631.5,318 631.5,391  705,391"/><polyline style="fill:#ffffff;stroke:#333333;stroke-width:2;fill-opacity:0;" points="687,400 705,391 688,380"/><text style="font-weight:Normal; font-size: 12px; text-anchor: middle; font-family: sans-serif; fill: #333333;" class="" y="370" x="698"/><text style="font-weight:Normal; font-size: 12px; text-anchor: start; font-family: sans-serif; fill: #333333;" class="" y="354" x="631"/><text style="font-weight:Normal; font-size: 12px; text-anchor: middle; font-family: sans-serif; fill: #333333;" class="" y="310" x="576"/></g><g transform="translate(0,0)"><path style="fill:none;stroke:#333333;stroke-width:2;stroke-dasharray:4,3;;" d="M5167,738 C5241,738 5241,773  5315,773"/><text style="font-weight:Normal; font-size: 12px; text-anchor: middle; font-family: sans-serif; fill: #333333;" class="" y="755" x="5302"/><text style="font-weight:Normal; font-size: 12px; text-anchor: start; font-family: sans-serif; fill: #333333;" class="" y="755" x="5241"/><text style="font-weight:Normal; font-size: 12px; text-anchor: middle; font-family: sans-serif; fill: #333333;" class="" y="726" x="5183"/></g><g transform="translate(0,0)"><path style="fill:none;stroke:#333333;stroke-width:2;stroke-dasharray:4,3;;" d="M5167,738 C5240.5,738 5240.5,824  5314,824"/><text style="font-weight:Normal; font-size: 12px; text-anchor: middle; font-family: sans-serif; fill: #333333;" class="" y="803" x="5307"/><text style="font-weight:Normal; font-size: 12px; text-anchor: start; font-family: sans-serif; fill: #333333;" class="" y="781" x="5240"/><text style="font-weight:Normal; font-size: 12px; text-anchor: middle; font-family: sans-serif; fill: #333333;" class="" y="732" x="5186"/></g><g transform="translate(0,0)"><g transform="matrix(1,0,0,1,5265,957)"><path style="fill:none;stroke:#333333;stroke-width:3.0;;" d="m65.07985738182238,29.26881934366494c0,4.810975287874417 -2.812038766879821,8.710332960793401 -6.281494546727884,8.710332960793401l-52.497469338923544,0c-3.469455779848063,0 -6.281494546727884,-3.8993576729189847 -6.281494546727884,-8.710332960793401l0,-18.043706595790123c0,-4.810975287874417 2.812038766879821,-8.710332960793401 6.281494546727884,-8.710332960793401l53.39461559823144,-2.488593724047799c3.469808755425496,0 6.281847522305316,5.143889067438901 6.281847522305316,9.954864355313317l-0.8975110007379062,19.287748531187916z"/></g><text style="font-weight:bold; font-size: 12px; text-anchor: middle; font-family: arial,helvetica,sans-serif; fill: #333333;" class="svg-txt-center" y="980" x="5298">init</text></g><g transform="translate(0,0)"><g transform="matrix(1,0,0,1,5140,1063)"><path style="fill:none;stroke:#333333;stroke-width:3.0;;" d="m2.782678524884328,3.9921504081082064c5.145712268976438,-7.321759950172042 21.374237077972854,-4.308667201704669 22.166773888819417,6.888925053519851c0.7910019269854806,11.19716194074127 -7.91651663098454,17.22753788109624 -17.02106161984298,12.489386088358973c-9.103010104997356,-4.734801487117676 -9.707217607735664,-12.886679057811275 -5.145712268976438,-19.378311141878825z"/></g></g><g transform="translate(0,0)"><path style="fill:none;stroke:#333333;stroke-width:2;stroke-dasharray:4,3;;" d="M5072,1075 C5105,1075 5105,1075  5138,1075"/><text style="font-weight:Normal; font-size: 12px; text-anchor: middle; font-family: sans-serif; fill: #333333;" class="" y="1060" x="5122"/><text style="font-weight:Normal; font-size: 12px; text-anchor: start; font-family: sans-serif; fill: #333333;" class="" y="1075" x="5105"/><text style="font-weight:Normal; font-size: 12px; text-anchor: middle; font-family: sans-serif; fill: #333333;" class="" y="1060" x="5086"/></g><g transform="translate(0,0)"><path style="fill:none;stroke:#333333;stroke-width:2;stroke-dasharray:4,3;;" d="M5167,1075 C5215,1075 5215,976  5263,976"/><text style="font-weight:Normal; font-size: 12px; text-anchor: middle; font-family: sans-serif; fill: #333333;" class="" y="977" x="5241"/><text style="font-weight:Normal; font-size: 12px; text-anchor: start; font-family: sans-serif; fill: #333333;" class="" y="1025" x="5215"/><text style="font-weight:Normal; font-size: 12px; text-anchor: middle; font-family: sans-serif; fill: #333333;" class="" y="1054" x="5165"/></g><g transform="translate(0,0)"><g transform="matrix(1,0,0,1,5258,1399)"><path style="fill:none;stroke:#333333;stroke-width:3.0;;" d="m65.07985738182238,29.26881934366494c0,4.810975287874417 -2.812038766879821,8.710332960793401 -6.281494546727884,8.710332960793401l-52.497469338923544,0c-3.469455779848063,0 -6.281494546727884,-3.8993576729189847 -6.281494546727884,-8.710332960793401l0,-18.043706595790123c0,-4.810975287874417 2.812038766879821,-8.710332960793401 6.281494546727884,-8.710332960793401l53.39461559823144,-2.488593724047799c3.469808755425496,0 6.281847522305316,5.143889067438901 6.281847522305316,9.954864355313317l-0.8975110007379062,19.287748531187916z"/></g><text style="font-weight:bold; font-size: 12px; text-anchor: middle; font-family: arial,helvetica,sans-serif; fill: #333333;" class="svg-txt-center" y="1422" x="5291">init</text></g><g transform="translate(0,0)"><g transform="matrix(1,0,0,1,5266,1586)"><path style="fill:none;stroke:#333333;stroke-width:3.0;;" d="m145.93664988651076,29.26881934366494c0,4.810975287874417 -6.305783901488081,8.710332960793401 -14.085775650238283,8.710332960793401l-117.72159791152549,0c-7.7799917487502,0 -14.085775650238283,-3.8993576729189847 -14.085775650238283,-8.710332960793401l0,-18.043706595790123c0,-4.810975287874417 6.305783901488081,-8.710332960793401 14.085775650238283,-8.710332960793401l119.73338043239775,-2.488593724047799c7.780783269742019,0 14.0865671712301,5.143889067438901 14.0865671712301,9.954864355313317l-2.012600425897123,19.287748531187916z"/></g><text style="font-weight:bold; font-size: 12px; text-anchor: middle; font-family: arial,helvetica,sans-serif; fill: #333333;" class="svg-txt-center" y="1609" x="5340">chooseCustomer()</text></g><g transform="translate(0,0)"><g transform="matrix(1,0,0,1,5261,1487)"><path style="fill:none;stroke:#333333;stroke-width:3.0;;" d="m144.95059144133165,29.26881934366494c0,4.810975287874417 -6.263177253505054,8.710332960793401 -13.990601490439376,8.710332960793401l-116.9261817094206,0c-7.727424236934321,0 -13.990601490439376,-3.8993576729189847 -13.990601490439376,-8.710332960793401l0,-18.043706595790123c0,-4.810975287874417 6.263177253505054,-8.710332960793401 13.990601490439376,-8.710332960793401l118.92437110515182,-2.488593724047799c7.7282104098113305,0 13.991387663316385,5.143889067438901 13.991387663316385,9.954864355313317l-1.9990017743707909,19.287748531187916z"/></g><text style="font-weight:bold; font-size: 12px; text-anchor: middle; font-family: arial,helvetica,sans-serif; fill: #333333;" class="svg-txt-center" y="1510" x="5334">searchCustomer()</text></g><g transform="translate(0,0)"><g transform="matrix(1,0,0,1,5273,1033)"><path style="fill:none;stroke:#333333;stroke-width:3.0;;" d="m126.21548098292824,30.039051431656123c0,4.937579900713217 -5.45365094182753,8.939552249235334 -12.182292454260137,8.939552249235334l-101.81327386942746,0c-6.728641512432606,0 -12.182292454260137,-4.001972348522116 -12.182292454260137,-8.939552249235334l0,-18.518540979889863c0,-4.937579900713217 5.45365094182753,-8.939552249235334 12.182292454260137,-8.939552249235334l103.55319388747914,-2.5540830325753725c6.729326071128233,0 12.182977012955764,5.2792545692136095 12.182977012955764,10.216834469926825l-1.7406273953704845,19.79532086095602z"/></g><text style="font-weight:bold; font-size: 12px; text-anchor: middle; font-family: arial,helvetica,sans-serif; fill: #333333;" class="svg-txt-center" y="1056" x="5337">saveApprove()</text></g><text style="font-weight:Normal; font-size: 16px; text-anchor: end; font-family: Arial; fill: #ccc;" y="3999" x="7119">www.sketchboard.io</text></svg>